<svg width="31" height="30" viewBox="0 0 31 30" fill="none" xmlns="http://www.w3.org/2000/svg">
<path fill-rule="evenodd" clip-rule="evenodd" d="M27.7216 4.875H7.00271L5.23245 1.70189C5.03375 1.34573 4.65784 1.125 4.25 1.125H2C1.37868 1.125 0.875 1.62868 0.875 2.25C0.875 2.87132 1.37868 3.375 2 3.375H3.5894L5.33644 6.50648L9.36555 15.4213L9.36968 15.4304L9.72456 16.2156L5.6793 20.5306C5.38843 20.8408 5.29738 21.2886 5.44398 21.6878C5.59057 22.087 5.94976 22.3694 6.37229 22.4177L10.0595 22.8391C14.6715 23.3662 19.3286 23.3662 23.9406 22.8391L27.6278 22.4177C28.2451 22.3472 28.6883 21.7896 28.6178 21.1723C28.5472 20.555 27.9896 20.1117 27.3723 20.1823L23.6851 20.6037C19.2428 21.1114 14.7572 21.1114 10.315 20.6037L8.85169 20.4364L11.8208 17.2694C11.8495 17.2388 11.8762 17.207 11.9008 17.1742L13.03 17.3211C14.6124 17.527 16.2119 17.5674 17.8027 17.4415C21.5129 17.1481 24.9515 15.3826 27.3522 12.5386L28.2193 11.5114C28.2484 11.4769 28.2754 11.4407 28.3002 11.4029L29.9163 8.94014C31.0618 7.19449 29.8095 4.875 27.7216 4.875ZM11.9844 14.9161C11.7363 14.8838 11.5223 14.7262 11.4179 14.4991L11.4159 14.4947L8.08511 7.125H27.7216C28.0199 7.125 28.1988 7.45636 28.0351 7.70573L26.4562 10.1118L25.6329 11.0873C23.6198 13.4721 20.7364 14.9525 17.6253 15.1985C16.1904 15.312 14.7476 15.2756 13.3203 15.0899L11.9844 14.9161Z" fill="black"/>
<path d="M8.75 24.75C7.50736 24.75 6.5 25.7574 6.5 27C6.5 28.2426 7.50736 29.25 8.75 29.25C9.99264 29.25 11 28.2426 11 27C11 25.7574 9.99264 24.75 8.75 24.75Z" fill="black"/>
<path d="M23 27C23 25.7574 24.0074 24.75 25.25 24.75C26.4926 24.75 27.5 25.7574 27.5 27C27.5 28.2426 26.4926 29.25 25.25 29.25C24.0074 29.25 23 28.2426 23 27Z" fill="black"/>
<path fill-rule="evenodd" clip-rule="evenodd" d="M27.7216 4.875H7.00271L5.23245 1.70189C5.03375 1.34573 4.65784 1.125 4.25 1.125H2C1.37868 1.125 0.875 1.62868 0.875 2.25C0.875 2.87132 1.37868 3.375 2 3.375H3.5894L5.33644 6.50648L9.36555 15.4213L9.36968 15.4304L9.72456 16.2156L5.6793 20.5306C5.38843 20.8408 5.29738 21.2886 5.44398 21.6878C5.59057 22.087 5.94976 22.3694 6.37229 22.4177L10.0595 22.8391C14.6715 23.3662 19.3286 23.3662 23.9406 22.8391L27.6278 22.4177C28.2451 22.3472 28.6883 21.7896 28.6178 21.1723C28.5472 20.555 27.9896 20.1117 27.3723 20.1823L23.6851 20.6037C19.2428 21.1114 14.7572 21.1114 10.315 20.6037L8.85169 20.4364L11.8208 17.2694C11.8495 17.2388 11.8762 17.207 11.9008 17.1742L13.03 17.3211C14.6124 17.527 16.2119 17.5674 17.8027 17.4415C21.5129 17.1481 24.9515 15.3826 27.3522 12.5386L28.2193 11.5114C28.2484 11.4769 28.2754 11.4407 28.3002 11.4029L29.9163 8.94014C31.0618 7.19449 29.8095 4.875 27.7216 4.875ZM11.9844 14.9161C11.7363 14.8838 11.5223 14.7262 11.4179 14.4991L11.4159 14.4947L8.08511 7.125H27.7216C28.0199 7.125 28.1988 7.45636 28.0351 7.70573L26.4562 10.1118L25.6329 11.0873C23.6198 13.4721 20.7364 14.9525 17.6253 15.1985C16.1904 15.312 14.7476 15.2756 13.3203 15.0899L11.9844 14.9161Z" stroke="white" stroke-linecap="round" stroke-linejoin="round"/>
<path d="M8.75 24.75C7.50736 24.75 6.5 25.7574 6.5 27C6.5 28.2426 7.50736 29.25 8.75 29.25C9.99264 29.25 11 28.2426 11 27C11 25.7574 9.99264 24.75 8.75 24.75Z" stroke="white" stroke-linecap="round" stroke-linejoin="round"/>
<path d="M23 27C23 25.7574 24.0074 24.75 25.25 24.75C26.4926 24.75 27.5 25.7574 27.5 27C27.5 28.2426 26.4926 29.25 25.25 29.25C24.0074 29.25 23 28.2426 23 27Z" stroke="white" stroke-linecap="round" stroke-linejoin="round"/>
</svg>
