<svg width="32" height="32" viewBox="0 0 32 32" fill="none" xmlns="http://www.w3.org/2000/svg">
<path fill-rule="evenodd" clip-rule="evenodd" d="M16 3.625C11.1379 3.625 7.36599 6.67004 6.72224 10.375H10C10.6213 10.375 11.125 10.8787 11.125 11.5V22C11.125 22.6213 10.6213 23.125 10 23.125H5.5C3.22183 23.125 1.375 21.2782 1.375 19V14.5C1.375 12.5925 2.66967 10.9875 4.4282 10.5156C5.00039 5.25939 10.1107 1.375 16 1.375C21.8893 1.375 26.9996 5.25939 27.5718 10.5156C29.3303 10.9875 30.625 12.5925 30.625 14.5V19C30.625 20.9128 29.3231 22.5215 27.557 22.9883C27.0759 26.4556 24.0997 29.125 20.5 29.125H18.7819C18.3369 30.2244 17.259 31 16 31C14.3431 31 13 29.6569 13 28C13 26.3432 14.3431 25 16 25C17.259 25 18.3369 25.7756 18.7819 26.875H20.5C22.8052 26.875 24.7367 25.275 25.2446 23.125H22C21.3787 23.125 20.875 22.6213 20.875 22V11.5C20.875 10.8787 21.3787 10.375 22 10.375H25.2778C24.634 6.67004 20.8621 3.625 16 3.625ZM5.5 12.625C4.46447 12.625 3.625 13.4645 3.625 14.5V19C3.625 20.0355 4.46447 20.875 5.5 20.875H8.875V12.625H5.5ZM28.375 14.5C28.375 13.4645 27.5355 12.625 26.5 12.625H23.125V20.875H26.5C27.5355 20.875 28.375 20.0355 28.375 19V14.5Z" fill="black" stroke="white" stroke-linejoin="round"/>
</svg>
