<svg width="28" height="24" viewBox="0 0 28 24" fill="none" xmlns="http://www.w3.org/2000/svg">
<path fill-rule="evenodd" clip-rule="evenodd" d="M0.875 8.04469C0.875 3.99395 4.42871 0.875 8.6 0.875C10.7502 0.875 12.6423 1.88321 14 3.18775C15.3577 1.88321 17.2498 0.875 19.4 0.875C23.5713 0.875 27.125 3.99395 27.125 8.04469C27.125 10.8195 25.9417 13.2597 24.3023 15.3223C22.6657 17.3814 20.5249 19.1289 18.4752 20.549C17.6923 21.0913 16.9003 21.5917 16.1754 21.9608C15.4948 22.3075 14.7121 22.625 14 22.625C13.2879 22.625 12.5052 22.3075 11.8246 21.9608C11.0997 21.5917 10.3077 21.0913 9.5248 20.549C7.47507 19.1289 5.33431 17.3814 3.69773 15.3223C2.05832 13.2597 0.875 10.8195 0.875 8.04469ZM8.6 3.125C5.48113 3.125 3.125 5.41865 3.125 8.04469C3.125 10.1499 4.01868 12.11 5.45914 13.9223C6.90242 15.7382 8.84439 17.3404 10.8061 18.6994C11.5484 19.2137 12.2476 19.6513 12.8457 19.9559C13.488 20.283 13.86 20.375 14 20.375C14.14 20.375 14.512 20.283 15.1543 19.9559C15.7524 19.6513 16.4516 19.2137 17.1939 18.6994C19.1556 17.3404 21.0976 15.7382 22.5409 13.9223C23.9813 12.11 24.875 10.1499 24.875 8.04469C24.875 5.41865 22.5189 3.125 19.4 3.125C17.6088 3.125 15.9362 4.19513 14.8918 5.55338C14.6789 5.83034 14.3494 5.99265 14 5.99265C13.6506 5.99265 13.3211 5.83034 13.1082 5.55338C12.0638 4.19513 10.3912 3.125 8.6 3.125Z" fill="black" stroke="white" stroke-linecap="round" stroke-linejoin="round"/>
</svg>
