<svg xmlns="http://www.w3.org/2000/svg" version="1">
    <symbol id="close">
        <path fill="none" stroke="#141414" stroke-linecap="round" stroke-linejoin="round"
            stroke-width="2" d="M15 1L1 15m14 0L1 1" />
    </symbol>
    <symbol id="icon_promo" viewBox="0 0 32 32">
        <path
            d="M10.66 11.06a2.42 2.42 0 1 1 2.43 2.39 2.42 2.42 0 0 1-2.43-2.39zm9.14-1.93a.57.57 0 0 1 .52-.26h.26c.36 0 .48.22.26.52l-8.63 11.32a.57.57 0 0 1-.52.26h-.28c-.34 0-.47-.22-.24-.52zm-5.32 1.93a1.39 1.39 0 1 0-1.39 1.43 1.41 1.41 0 0 0 1.4-1.43zm4.42 5.33a2.39 2.39 0 1 1 0 4.78 2.39 2.39 0 1 1 0-4.78zm0 3.82a1.43 1.43 0 1 0-1.39-1.43 1.4 1.4 0 0 0 1.4 1.43z"
            class="cls-1" />
        <path
            d="M16 31.39A15.5 15.5 0 1 1 27 4.93a.5.5 0 0 1-.71.71 14.49 14.49 0 1 0 2.69 3.71l-2.26 1.21a.49.49 0 0 1-.68-.2.5.5 0 0 1 .2-.68l2.7-1.44a.5.5 0 0 1 .67.2A15.5 15.5 0 0 1 16 31.39z"
            class="cls-1" />
        <path
            d="M16 28.18a12.28 12.28 0 1 1 8.88-20.77.5.5 0 1 1-.72.69 11.25 11.25 0 1 0 1.75 2.4.5.5 0 1 1 .88-.48A12.29 12.29 0 0 1 16 28.18z"
            class="cls-1" />
        <circle cx="27" cy="5" r="2" fill="#00c251" class="cls-2" />
    </symbol>
    <symbol id="icon_new" viewBox="0 0 32 32">
        <path
            d="M7.15 18.94a.3.3 0 0 1 .1-.46l.23-.15a.29.29 0 0 1 .46.1l.25.38a1.63 1.63 0 0 1 .13.26 2.1 2.1 0 0 1 1-2c1-.65 1.81-.4 2.51.68l1.59 2.44a.29.29 0 0 1-.09.46l-.26.17a.3.3 0 0 1-.46-.1l-1.49-2.32c-.39-.6-.81-1-1.49-.54a1.75 1.75 0 0 0-.39 2.49l1.14 1.75a.29.29 0 0 1-.1.46l-.26.17a.3.3 0 0 1-.46-.1zm6.56-4.82a2.15 2.15 0 0 1 3.15.83.34.34 0 0 1-.1.47l-2.83 1.85a1.71 1.71 0 0 0 2.4.48 2.07 2.07 0 0 0 .8-1 .29.29 0 0 1 .44-.15l.16.08a.29.29 0 0 1 .16.42 3 3 0 0 1-1.14 1.39 2.58 2.58 0 0 1-3.7-.76 2.48 2.48 0 0 1 .66-3.61zm2.17 1.11a1.23 1.23 0 0 0-1.77-.46 1.49 1.49 0 0 0-.5 1.94zm.41-2.23a.26.26 0 0 1 0-.46l.28-.18a.34.34 0 0 1 .46 0l2.62 2.2c.2.18.4.39.4.39s-.1-.27-.18-.53L19 11.17a.33.33 0 0 1 .15-.43l.26-.17a.34.34 0 0 1 .46 0l2.64 2.18c.2.18.41.38.41.38a4.9 4.9 0 0 1-.19-.52l-1-3.28a.33.33 0 0 1 .15-.43l.28-.18a.26.26 0 0 1 .44.16l1.21 4.48a.35.35 0 0 1-.16.44l-.41.27a.34.34 0 0 1-.46 0l-2.44-2a4.14 4.14 0 0 1-.42-.38 4.82 4.82 0 0 1 .18.54l.82 3a.35.35 0 0 1-.16.44l-.42.27a.35.35 0 0 1-.46 0z"
            class="cls-1" />
        <path
            d="M16 31.6A15.5 15.5 0 1 1 27 5.14a.5.5 0 0 1-.71.71 14.5 14.5 0 1 0 4.24 10.25A14.55 14.55 0 0 0 29 9.55l-2.26 1.21a.5.5 0 1 1-.47-.88l2.7-1.44a.5.5 0 0 1 .67.2A15.51 15.51 0 0 1 16 31.6z"
            class="cls-1" />
        <path
            d="M16 28.38a12.28 12.28 0 0 1 0-24.57 12.17 12.17 0 0 1 8.88 3.8.5.5 0 1 1-.72.69 11.23 11.23 0 1 0 1.76 2.4.5.5 0 1 1 .88-.48A12.29 12.29 0 0 1 16 28.38z"
            class="cls-1" />
        <circle cx="27" cy="6" r="2" fill="#00c251" class="cls-2" />
    </symbol>
    <symbol id="icon_bestseller" viewBox="0 0 63 42">
        <path
            d="M6.33 26.47l2.16-.91a1.75 1.75 0 0 1 2.52.77 1.55 1.55 0 0 1-.19 1.6 1.53 1.53 0 0 1 1.58 1c.51 1.21-.23 2.16-1.35 2.63l-2.19.92zM9.53 28a.78.78 0 0 0 .47-1.07.76.76 0 0 0-1.08-.43l-1 .44.64 1.52zm1.22 2.58a.95.95 0 1 0-.75-1.72l-1.17.5.74 1.74zm.83-6.33l3.62-1.53.4.94-2.52 1.06.67 1.58 2-.86.4.94-2 .86.69 1.63 2.66-1.12.4.95-3.75 1.58zm6.71 2.46a2.63 2.63 0 0 0 1.78 0 .84.84 0 0 0 .57-1.1c-.46-1.08-3.23.31-4-1.55a2 2 0 0 1 1.29-2.61 2.79 2.79 0 0 1 2.07-.11l-.1 1.09a2.39 2.39 0 0 0-1.56 0 .88.88 0 0 0-.61 1.11c.45 1.07 3.18-.39 4 1.54a2 2 0 0 1-1.24 2.61 3.18 3.18 0 0 1-2.43.05zm4.12-5.92l-2 .84-.4-.94 5.06-2.14.4.94-2 .84 2.15 5.1-1.1.46zm5.3 1.95a2.63 2.63 0 0 0 1.78 0 .84.84 0 0 0 .57-1.1c-.46-1.08-3.23.31-4-1.55a2 2 0 0 1 1.29-2.61 2.79 2.79 0 0 1 2.08-.11l-.1 1.09a2.4 2.4 0 0 0-1.56 0 .88.88 0 0 0-.61 1.11c.45 1.07 3.18-.39 4 1.54a2 2 0 0 1-1.24 2.61 3.18 3.18 0 0 1-2.43.05zm2.48-6.34l3.62-1.53.4.94-2.52 1.06.67 1.58 2-.86.4.94-2 .86.67 1.61 2.66-1.12.4.95-3.75 1.58zm4.68-1.97L36 14l2.15 5.1 2.58-1.1.4.95-3.71 1.57zm4.37-1.85l1.1-.46 2.15 5.1 2.61-1.1.4.95-3.71 1.57zm4.38-1.85l3.62-1.53.4.94-2.52 1.06.67 1.58 2-.86.4.94-2 .86.69 1.63 2.66-1.12.4.95-3.75 1.58zm4.68-1.97l1.95-.82a3.05 3.05 0 0 1 1.29-.34 1.85 1.85 0 0 1 1.68 1.23 1.89 1.89 0 0 1-.32 2.08 1.6 1.6 0 0 1 .33.21l2.19 1.73-1.23.52-2.15-1.75-1.04.46 1 2.26-1.1.46zm3.28 2a1 1 0 0 0 .55-1.36c-.24-.58-.64-.83-1.5-.47l-.83.35.8 1.89zM40.56 7.11a16.44 16.44 0 0 0-25.12 12.52l1.41-.63a15.11 15.11 0 0 1 23-10.8.67.67 0 1 0 .71-1.13zm-5.03 28.57a15.13 15.13 0 0 1-15.34-5l-1.28.53A16.44 16.44 0 0 0 48.14 19l-1.28.53a15.13 15.13 0 0 1-11.33 16.15z"
            class="cls-1" />
        <path
            d="M51 17.87a19.4 19.4 0 0 1-34.89 14.5l-1.27.53a20.74 20.74 0 0 0 37.39-15.56zM40.95 2.42A20.57 20.57 0 0 0 26.73.93a20.77 20.77 0 0 0-15.64 20.51l1.33-.55A19.4 19.4 0 0 1 40.26 3.57 3.56 3.56 0 0 0 41 2.36z"
            class="cls-1" />
        <path
            d="M59.35 7.88a6 6 0 0 0-7.85-3.24L6.06 23.53a6 6 0 0 0-3.24 7.85 6 6 0 0 0 7.85 3.24l45.44-18.89a6 6 0 0 0 3.24-7.85z"
            class="cls-2" />
        <path d="M42.8 5.79a2.1 2.1 0 1 1 1.52-2.54 2.1 2.1 0 0 1-1.52 2.54z" class="cls-3" />
    </symbol>
    <symbol id="icon_dist" viewBox="0 0 42 42">
        <path
            d="M21.17 42A20.75 20.75 0 1 1 35.84 6.6a.67.67 0 0 1-.95.95 19.39 19.39 0 1 0 3.6 5l-3 1.62a.66.66 0 0 1-.91-.27.67.67 0 0 1 .27-.91L38.46 11a.67.67 0 0 1 .9.27A20.75 20.75 0 0 1 21.17 42z"
            class="cls-1" />
        <path
            d="M21.17 37.72A16.45 16.45 0 1 1 33.06 9.91a.67.67 0 1 1-1 .92A15.07 15.07 0 1 0 34.44 14a.67.67 0 1 1 1.18-.64 16.46 16.46 0 0 1-14.45 24.36z"
            class="cls-1" />
        <path d="M35.52 9.42a2.1 2.1 0 1 1 2.1-2.09 2.1 2.1 0 0 1-2.1 2.09z" class="cls-2" />
        <path
            d="M31.12 21.77a1.83 1.83 0 0 0-.47-1.22 1.84 1.84 0 0 0-1-3.39h-3.76a13.75 13.75 0 0 0 .4-2.44 12.85 12.85 0 0 0 .07-2.25 2.69 2.69 0 0 0-.76-1.92 1.93 1.93 0 0 0-1.53-.39c-1.27.14-1.44 1.32-1.52 2a.4.4 0 0 0 0 .06c-.06.53-.25 2-.38 2.46a13.42 13.42 0 0 1-3.6 5.4 1.72 1.72 0 0 0-1.43-.81H13a1.9 1.9 0 0 0-1.78 2v6a1.9 1.9 0 0 0 1.78 2h4.11a1.82 1.82 0 0 0 1.71-1.46 4.19 4.19 0 0 0 2.55 1.44h7.17a1.83 1.83 0 0 0 1.27-3 1.82 1.82 0 0 0 .42-2.78 1.83 1.83 0 0 0 .89-1.7zm-13.07 5.44a1.05 1.05 0 0 1-.93 1.14H13a1.05 1.05 0 0 1-.93-1.14v-6a1.05 1.05 0 0 1 .93-1.1h4.11a1.05 1.05 0 0 1 .93 1.14zm11.23-4.45h-.13a.41.41 0 0 0-.25.27.42.42 0 0 0 .29.53 1 1 0 0 1-.28 1.94.42.42 0 0 0-.4.32.41.41 0 0 0 0 .1.41.41 0 0 0 0 .13.41.41 0 0 0 .27.26 1 1 0 0 1-.29 1.93c-.43 0-4.92.07-7 0a3.62 3.62 0 0 1-2-1.25c-.17-.16-.32-.3-.47-.43v-5.4a2.22 2.22 0 0 0 0-.37 13.47 13.47 0 0 0 4.11-6c.16-.59.36-2.19.4-2.54.13-1.06.36-1.26.78-1.31a1.12 1.12 0 0 1 .88.2 2 2 0 0 1 .46 1.41 12.63 12.63 0 0 1-.07 2 8.35 8.35 0 0 1-.52 2.76.41.41 0 0 0-.05.13.4.4 0 0 0 0 .06.4.4 0 0 0 0 .08.41.41 0 0 0 .05.12l.09.09h4.62a1 1 0 0 1 0 2 .41.41 0 0 0-.22.74l.1.06a1 1 0 0 1-.28 1.94z"
            class="cls-3" />
    </symbol>
    <symbol id="konesso_logo_notagline" viewBox="0 0 290 99">
        <path
            d="M108 27v33c0 1.3-.8 2-2.1 2h-1.8c-1.3 0-2-.7-2-2V27c0-1.3.7-2.1 2-2.1h1.8c1.3.1 2.1.8 2.1 2.1zm14.3.4l-7 15.6 7.5 16.7c.6 1.4-.1 2.4-1.6 2.4h-2.4c-1.1 0-1.9-.5-2.4-1.6l-6.8-16.1c-.4-.9-.4-1.7.1-2.7l6.5-15.2c.5-1 1.2-1.6 2.3-1.6h2.2c1.6.1 2.2 1.1 1.6 2.5zM136.8 62.6c-6.1 0-9.6-3.3-9.6-9V39c0-5.6 3.5-9 9.6-9 6 0 9.6 3.4 9.6 9v14.6c0 5.7-3.6 9-9.6 9zm0-27.4c-2.6 0-3.9 1.4-3.9 3.7v14.6c0 2.4 1.3 3.7 3.9 3.7 2.6 0 3.9-1.4 3.9-3.7V39c-.1-2.3-1.4-3.8-3.9-3.8zM153.2 60V32.6c0-1.3.7-2.1 2-2.1h1.4c1.3 0 2.1.8 2.1 2.1v1.1c.6-1.3 2.6-3.4 6.3-3.4 4.6 0 7.3 3 7.3 7.5V60c0 1.3-.8 2-2.1 2h-1.7c-1.3 0-2-.7-2-2V39.1c0-2.4-1.3-3.7-3.6-3.7-2.1 0-3.9 1.3-3.9 3.6v21c0 1.3-.7 2-2 2h-1.7c-1.4 0-2.1-.7-2.1-2zM184.4 48v5.8c0 2.3 1.3 3.7 4 3.7s4-1.3 4-3.5v-.5c0-1.2.7-1.9 2-1.9h1.6c1.3 0 2.1.6 2.1 1.8v.4c0 5.5-3.6 8.9-9.7 8.9s-9.6-3.3-9.6-9V39c0-5.6 3.5-9 9.6-9s9.7 3.4 9.7 9v6.9c0 1-.5 1.7-1.3 1.9-.3.1-.6.2-.9.2h-11.5zm0-9.1v4.5h8v-4.5c0-2.3-1.4-3.7-4-3.7-2.7 0-4 1.3-4 3.7zM222.2 52.7V54c0 5.6-3.4 8.5-9.5 8.5-6 0-9.4-2.9-9.4-8.4v-.2c0-1.2.6-2 2.1-2h1.6c1.5 0 2.1.8 2.1 2.1v.1c0 2.3 1.1 3.4 3.7 3.4s3.9-1 3.9-3.4v-1c0-1.5-.7-2.5-2.5-3.4l-5.8-2.8c-3-1.5-4.8-3.8-4.8-7.3v-1c0-5.5 3.2-8.6 9.2-8.6 6 0 9.2 3 9.2 8.3v.2c0 1.1-.5 1.8-1.9 1.8h-1.7c-1.4 0-2-.6-2-1.8v-.1c0-2.3-.9-3.5-3.6-3.5s-3.6 1.2-3.6 3.5v.8c0 1.8.8 2.7 2.4 3.5l5.6 2.9c3.1 1.4 5 3.7 5 7.1zM245.5 52.7V54c0 5.6-3.4 8.5-9.5 8.5-6 0-9.4-2.9-9.4-8.4v-.2c0-1.2.6-2 2.1-2h1.6c1.5 0 2.1.8 2.1 2.1v.1c0 2.3 1.1 3.4 3.7 3.4s3.9-1 3.9-3.4v-1c0-1.5-.7-2.5-2.5-3.4l-5.8-2.8c-3-1.5-4.8-3.8-4.8-7.3v-1c0-5.5 3.2-8.6 9.2-8.6 6 0 9.2 3 9.2 8.3v.2c0 1.1-.5 1.8-1.9 1.8h-1.7c-1.4 0-2-.6-2-1.8v-.1c0-2.3-.9-3.5-3.6-3.5s-3.6 1.2-3.6 3.5v.8c0 1.8.8 2.7 2.4 3.5l5.6 2.9c3 1.4 5 3.7 5 7.1zM260.4 62.6c-6.1 0-9.6-3.3-9.6-9V39c0-5.6 3.5-9 9.6-9 6 0 9.6 3.4 9.6 9v14.6c0 5.7-3.6 9-9.6 9zm0-27.4c-2.6 0-3.9 1.4-3.9 3.7v14.6c0 2.4 1.3 3.7 3.9 3.7 2.6 0 3.9-1.4 3.9-3.7V39c-.1-2.3-1.4-3.8-3.9-3.8zM49.2 12.6c17.2 0 31.2 14 31.2 31.2S66.4 75 49.2 75 18 61 18 43.8s14-31.2 31.2-31.2m0-3.9c-19.4 0-35.1 15.7-35.1 35.1 0 19.4 15.7 35.1 35.1 35.1 19.4 0 35.1-15.7 35.1-35.1-.1-19.4-15.8-35.1-35.1-35.1z"
            class="st0" />
        <path
            d="M38.8 60.6c0 .4-.3.7-.7.7H36c-.4 0-.7-.3-.7-.7V27c0-.4.3-.7.7-.7h2.1c.4 0 .7.3.7.7v33.6zM61.6 25.7c-.2-.1-.4-.2-.6-.1l-1.6.5c-7 2.1-16.5 10.2-18.5 17.7 1.2 4.5 4.8 8.9 9 12.4v5.4c0 3.3 2.7 6 6 6s6-2.7 6-6V26.3c0-.2-.1-.5-.3-.6zM44.9 43.8c1.5-4.1 7.3-10.3 13.1-13v26.1c-5.8-2.8-11.6-8.9-13.1-13.1zm11 19.8c-1.2 0-2.1-1-2.1-2.1v-2.6c1.4.9 2.9 1.6 4.3 2.1v.5c-.1 1.2-1.1 2.1-2.2 2.1z"
            class="st0" />
        <g>
            <path
                d="M277.1 27h-.3c-.2 0-.3-.1-.4-.3l-.7-2.1h-.7v2c0 .2-.1.3-.3.3h-.2c-.2 0-.3-.1-.3-.3v-5.4c0-.2.1-.3.3-.3h1.2c1.1 0 1.6.6 1.6 1.4v.8c0 .6-.2 1-.8 1.3l.8 2.1c.1.4 0 .5-.2.5zm-1.4-3.1c.6 0 .8-.3.8-.7v-.8c0-.4-.2-.7-.8-.7h-.7v2.2h.7z"
                class="st0" />
            <path
                d="M275.8 30.1c-3.3 0-6-2.7-6-6s2.7-6 6-6 6 2.7 6 6-2.7 6-6 6zm0-10.9c-2.7 0-4.9 2.2-4.9 4.9s2.2 4.9 4.9 4.9 4.9-2.2 4.9-4.9-2.2-4.9-4.9-4.9z"
                class="st0" />
        </g>
    </symbol>
    <symbol id="konesso_logo" viewBox="0 0 283 101">
        <path
            d="M108.9 26.1v30.7c0 1.2-.7 1.9-1.9 1.9h-1.7c-1.2 0-1.9-.7-1.9-1.9V26.1c0-1.2.7-1.9 1.9-1.9h1.7c1.2 0 1.9.7 1.9 1.9zm13.4.3l-6.5 14.5 7 15.6c.6 1.3-.1 2.2-1.5 2.2h-2.2c-1.1 0-1.8-.5-2.2-1.5l-6.4-15c-.4-.9-.4-1.6.1-2.5l6.1-14.1c.5-1 1.1-1.5 2.2-1.5h2c1.3.1 2 1 1.4 2.3zM135.8 59.2c-5.7 0-9-3.1-9-8.4V37.2c0-5.2 3.3-8.4 9-8.4 5.6 0 9 3.1 9 8.4v13.6c-.1 5.3-3.4 8.4-9 8.4zm0-25.4c-2.4 0-3.6 1.3-3.6 3.5v13.6c0 2.2 1.2 3.5 3.6 3.5 2.4 0 3.6-1.3 3.6-3.5V37.2c0-2.1-1.2-3.4-3.6-3.4zM151.1 56.9V31.3c0-1.2.7-1.9 1.9-1.9h1.3c1.2 0 1.9.7 1.9 1.9v1.1c.6-1.2 2.4-3.2 5.9-3.2 4.3 0 6.8 2.8 6.8 7v20.6c0 1.2-.7 1.9-1.9 1.9h-1.6c-1.2 0-1.9-.7-1.9-1.9V37.3c0-2.2-1.2-3.4-3.4-3.4-1.9 0-3.6 1.2-3.6 3.4v19.6c0 1.2-.7 1.9-1.9 1.9H153c-1.3-.1-1.9-.7-1.9-1.9zM180.2 45.6V51c0 2.2 1.2 3.4 3.7 3.4s3.7-1.2 3.7-3.3v-.5c0-1.2.7-1.8 1.9-1.8h1.5c1.2 0 1.9.6 1.9 1.7v.5c0 5.2-3.4 8.3-9 8.3-5.7 0-9-3.1-9-8.4V37.2c0-5.2 3.3-8.4 9-8.4s9 3.1 9 8.4v6.4c0 1-.5 1.6-1.2 1.8-.3.1-.6.2-.9.2h-10.6zm0-8.5v4.2h7.4v-4.2c0-2.2-1.3-3.4-3.7-3.4s-3.7 1.3-3.7 3.4zM215.5 50.1v1.2c0 5.2-3.2 8-8.9 8-5.6 0-8.8-2.7-8.8-7.9v-.2c0-1.2.6-1.8 1.9-1.8h1.5c1.4 0 1.9.7 1.9 1.9v.1c0 2.1 1.1 3.1 3.5 3.1s3.6-1 3.6-3.1v-.9c0-1.4-.7-2.3-2.3-3.1l-5.4-2.6c-2.8-1.4-4.5-3.5-4.5-6.8v-1c0-5.2 2.9-8 8.6-8 5.6 0 8.6 2.8 8.6 7.8v.2c0 1-.5 1.7-1.8 1.7h-1.6c-1.3 0-1.9-.6-1.9-1.7v-.1c0-2.1-.9-3.3-3.3-3.3-2.5 0-3.3 1.1-3.3 3.2v.8c0 1.7.7 2.5 2.3 3.2l5.2 2.7c2.8 1.2 4.7 3.4 4.7 6.6zM237.1 50.1v1.2c0 5.2-3.2 8-8.9 8-5.6 0-8.8-2.7-8.8-7.9v-.2c0-1.2.6-1.8 1.9-1.8h1.5c1.4 0 1.9.7 1.9 1.9v.1c0 2.1 1.1 3.1 3.5 3.1s3.6-1 3.6-3.1v-.9c0-1.4-.7-2.3-2.3-3.1l-5.4-2.6c-2.8-1.4-4.5-3.5-4.5-6.8v-1c0-5.2 2.9-8 8.6-8 5.6 0 8.6 2.8 8.6 7.8v.2c0 1-.5 1.7-1.8 1.7h-1.6c-1.3 0-1.9-.6-1.9-1.7v-.1c0-2.1-.9-3.3-3.3-3.3s-3.3 1.1-3.3 3.2v.8c0 1.7.7 2.5 2.3 3.2l5.2 2.7c2.9 1.2 4.7 3.4 4.7 6.6zM251.1 59.2c-5.7 0-9-3.1-9-8.4V37.2c0-5.2 3.3-8.4 9-8.4 5.6 0 9 3.1 9 8.4v13.6c-.1 5.3-3.4 8.4-9 8.4zm0-25.4c-2.4 0-3.6 1.3-3.6 3.5v13.6c0 2.2 1.2 3.5 3.6 3.5 2.4 0 3.6-1.3 3.6-3.5V37.2c0-2.1-1.3-3.4-3.6-3.4zM44.2 14c19.3 0 34.9 15.7 34.9 34.9s-15.7 35-34.9 35-35-15.7-35-35S24.9 14 44.2 14m0-4.3C22.5 9.7 4.9 27.2 4.9 48.9c0 21.7 17.6 39.3 39.3 39.3s39.3-17.6 39.3-39.3C83.4 27.2 65.9 9.7 44.2 9.7z"
            class="st0" />
        <path
            d="M32.6 67.7c0 .5-.4.8-.8.8h-2.4c-.5 0-.8-.4-.8-.8V30.1c0-.5.4-.8.8-.8h2.4c.5 0 .8.4.8.8v37.6zM58.1 28.7c-.2-.2-.5-.2-.7-.1l-1.7.5C47.8 31.5 37.3 40.5 35 48.9c1.4 5 5.4 10 10.1 13.8v6a6.7 6.7 0 0 0 13.4 0V29.4c-.1-.3-.2-.5-.4-.7zM39.4 48.9c1.6-4.6 8.2-11.5 14.7-14.6v29.2c-6.5-3-13-9.9-14.7-14.6zm12.3 22.3c-1.3 0-2.4-1.1-2.4-2.4v-2.9c1.6 1 3.2 1.8 4.8 2.4v.5c0 1.3-1.1 2.4-2.4 2.4zM103.7 69.9c0-.3.1-.4.4-.4h.4c.3 0 .4.1.4.4v3.4h1.4l2.1-3.6c.1-.2.3-.3.5-.3h.5c.3 0 .5.2.3.5l-2.4 3.8 2.5 4.3c.2.3.1.5-.3.5h-.5c-.2 0-.4-.1-.5-.3l-2.3-3.9h-1.4v3.8c0 .3-.1.4-.4.4h-.4c-.3 0-.4-.1-.4-.4v-8.2zM114.8 74.6h.3v-.2c0-1.1-.6-1.4-1.4-1.4-.7 0-1.2.2-1.5.4-.2.1-.4.1-.6-.2l-.1-.2c-.1-.2-.1-.5.1-.6.4-.2 1.1-.6 2.1-.6 1.6 0 2.6.9 2.6 2.6v3.7c0 .3-.2.4-.4.4h-.3c-.3 0-.4-.1-.4-.4v-.4-.4s-.6 1.4-2.1 1.4c-1.2 0-2.2-.7-2.2-2-.1-1.9 2.5-2.1 3.9-2.1zm-1.5 3.2c1.1 0 1.8-1.1 1.8-2.1v-.3h-.3c-.9 0-2.7.1-2.7 1.3 0 .6.4 1.1 1.2 1.1zM117.5 72.6c-.1-.3.1-.5.4-.5h.4c.3 0 .4.1.5.4l1.3 4.3c.1.3.2.7.2.7s.1-.4.2-.7l1.3-4.2c.1-.2.2-.4.5-.4h.4c.3 0 .4.1.5.4l1.3 4.2c.1.3.2.7.2.7s.1-.4.2-.7l1.3-4.3c.1-.2.2-.4.5-.4h.4c.3 0 .5.2.4.5l-1.9 5.7c-.1.2-.2.4-.5.4h-.6c-.3 0-.4-.1-.5-.4l-1.3-3.9c-.1-.3-.2-.7-.2-.7s-.1.4-.2.7l-1.2 3.9c-.1.2-.2.4-.5.4h-.7c-.2 0-.4-.1-.5-.4l-1.9-5.7zM128.5 80.2c.1.1.3.1.5.1.5 0 .9-.5 1.1-1l.3-.8-2.5-6c-.1-.3 0-.5.3-.5h.5c.2 0 .4.1.5.3l1.5 4c.1.3.2.8.2.8l.2-.8 1.5-4c.1-.2.2-.4.5-.4h.5c.3 0 .5.2.3.5l-2.9 7.2c-.4 1-1.2 1.6-2.1 1.6-.4 0-.7-.1-.9-.2-.2-.1-.3-.3-.2-.6l.1-.2c.2 0 .4-.1.6 0zM148.9 69.9c0-.3.1-.4.4-.4h.4c.3 0 .4.1.4.4v3.6h4.8v-3.6c0-.3.2-.4.4-.4h.4c.3 0 .4.1.4.4v8.3c0 .3-.1.4-.4.4h-.4c-.3 0-.4-.1-.4-.4v-3.6h-4.8v3.6c0 .3-.1.4-.4.4h-.4c-.3 0-.4-.1-.4-.4v-8.3zM161.1 71.9c1.8 0 2.8 1.3 2.8 3.1 0 .2-.2.4-.4.4h-4.4c.1 1.4 1.1 2.2 2.3 2.2.7 0 1.3-.3 1.6-.5.2-.1.4-.1.6.1l.1.2c.1.2.1.4-.1.6-.4.3-1.2.7-2.2.7-2.1 0-3.5-1.5-3.5-3.4-.1-2 1.4-3.4 3.2-3.4zm1.6 2.8c0-1.2-.7-1.8-1.6-1.8-1 0-1.7.6-1.9 1.8h3.5zM165.4 72.5c0-.3.2-.4.4-.4h.4c.3 0 .4.1.4.4v1.3c.3-.9 1-1.7 2-1.7.3 0 .4.1.4.4v.4c0 .3-.2.4-.5.4-1.3 0-1.9 1.4-1.9 2.7v2.3c0 .3-.1.4-.4.4h-.4c-.3 0-.4-.1-.4-.4v-5.8zM170.2 69.9c0-.3.1-.4.4-.4h.4c.3 0 .4.1.4.4V73.2s.6-1.2 2.1-1.2c1.7 0 2.9 1.4 2.9 3.4 0 2.1-1.3 3.5-3 3.5-1.5 0-2.1-1.2-2.1-1.2v.7c0 .2-.2.4-.4.4h-.3c-.3 0-.4-.1-.4-.4v-8.5zm3 7.8c1.1 0 1.9-.8 1.9-2.3 0-1.4-.8-2.4-1.9-2.4-1 0-1.9.7-1.9 2.3.1 1.3.7 2.4 1.9 2.4zM181.3 74.6h.3v-.2c0-1.1-.6-1.4-1.4-1.4-.7 0-1.2.2-1.5.4-.2.1-.4.1-.6-.2l-.1-.2c-.1-.2-.1-.5.1-.6.4-.2 1.1-.6 2.1-.6 1.6 0 2.6.9 2.6 2.6v3.7c0 .3-.2.4-.4.4h-.3c-.3 0-.4-.1-.4-.4v-.4-.4s-.6 1.4-2.1 1.4c-1.2 0-2.2-.7-2.2-2 0-1.9 2.6-2.1 3.9-2.1zm-1.4 3.2c1.1 0 1.8-1.1 1.8-2.1v-.3h-.3c-.9 0-2.7.1-2.7 1.3 0 .6.4 1.1 1.2 1.1zM185 73.2h-.5c-.3 0-.4-.2-.4-.4v-.2c0-.3.1-.4.4-.4h.5v-1.4c0-.3.2-.4.4-.4h.4c.3 0 .4.1.4.4v1.4h1.1c.3 0 .4.2.4.4v.2c0 .3-.1.4-.4.4h-1.2v2.9c0 1.2.8 1.4 1.2 1.5.3 0 .5.1.5.4v.3c0 .3-.2.4-.5.4-1.3 0-2.4-.8-2.4-2.4v-3.1zM189.1 80.2c.1.1.3.1.5.1.5 0 .9-.5 1.1-1l.3-.8-2.5-6c-.1-.3 0-.5.3-.5h.5c.2 0 .4.1.5.3l1.5 4c.1.3.2.8.2.8l.2-.8 1.5-4c.1-.2.2-.4.5-.4h.5c.3 0 .5.2.3.5l-2.9 7.2c-.4 1-1.2 1.6-2.1 1.6-.4 0-.7-.1-.9-.2-.2-.1-.3-.3-.2-.6l.1-.2c.2 0 .4-.1.6 0zM209.5 69.9c0-.3.1-.4.4-.4h4.5c.3 0 .4.1.4.4v.3c0 .3-.1.4-.4.4h-3.6v2.9h2.9c.3 0 .4.1.4.4v.3c0 .3-.2.4-.4.4h-2.9v3h3.8c.3 0 .4.1.4.4v.3c0 .3-.1.4-.4.4h-4.7c-.3 0-.4-.1-.4-.4v-8.4zM216.5 69.9c0-.3.1-.4.4-.4h.4c.3 0 .4.1.4.4v4.6h.9l1.6-2.1c.1-.2.3-.3.5-.3h.5c.4 0 .5.2.3.5l-1.8 2.4 2.1 3.1c.2.3.1.5-.3.5h-.5c-.2 0-.4-.1-.5-.3l-1.8-2.8h-1v2.7c0 .3-.1.4-.4.4h-.4c-.3 0-.4-.1-.4-.4v-8.3zM222.9 77.5l.1-.2c.2-.2.3-.2.6-.1.3.2.8.5 1.6.5.7 0 1.1-.3 1.1-.9 0-1.3-3.4-.9-3.4-3.1 0-1.2 1.1-1.9 2.4-1.9.9 0 1.5.3 1.8.5.2.1.3.3.1.6l-.1.2c-.1.2-.3.3-.6.1-.3-.2-.7-.4-1.3-.4s-1.1.3-1.1.8c0 1.3 3.4.8 3.4 3.1 0 1.1-.9 1.9-2.4 1.9-1.1 0-1.8-.4-2.2-.7-.2.1-.2-.2 0-.4zM229 72.5c0-.3.1-.4.4-.4h.3c.3 0 .4.1.4.4v.8s.6-1.3 2.2-1.3c1.8 0 2.9 1.4 2.9 3.4 0 2.1-1.3 3.4-3 3.4-1.5 0-2-1.2-2-1.2v3.2c0 .3-.1.4-.4.4h-.4c-.3 0-.4-.1-.4-.4v-8.3zm3.1 5.2c1 0 1.9-.8 1.9-2.3 0-1.4-.8-2.4-1.9-2.4-1 0-1.9.7-1.9 2.4 0 1.2.7 2.3 1.9 2.3zM236.8 72.5c0-.3.2-.4.4-.4h.4c.3 0 .4.1.4.4v1.3c.3-.9 1-1.7 2-1.7.3 0 .4.1.4.4v.4c0 .3-.2.4-.5.4-1.3 0-1.9 1.4-1.9 2.7v2.3c0 .3-.1.4-.4.4h-.4c-.3 0-.4-.1-.4-.4v-5.8zM244.2 71.9c1.8 0 2.8 1.3 2.8 3.1 0 .2-.2.4-.4.4h-4.4c.1 1.4 1.1 2.2 2.3 2.2.7 0 1.3-.3 1.6-.5.2-.1.4-.1.6.1l.1.2c.1.2.1.4-.1.6-.4.3-1.2.7-2.2.7-2.1 0-3.5-1.5-3.5-3.4-.1-2 1.3-3.4 3.2-3.4zm1.6 2.8c0-1.2-.7-1.8-1.6-1.8-1 0-1.7.6-1.9 1.8h3.5zM248.1 77.5l.1-.2c.2-.2.3-.2.6-.1.3.2.8.5 1.6.5.6 0 1.1-.3 1.1-.9 0-1.3-3.4-.9-3.4-3.1 0-1.2 1.1-1.9 2.4-1.9.9 0 1.5.3 1.8.5.2.1.3.3.1.6l-.1.2c-.1.2-.3.3-.6.1-.3-.2-.7-.4-1.3-.4s-1.1.3-1.1.8c0 1.3 3.4.8 3.4 3.1 0 1.1-.9 1.9-2.4 1.9-1.1 0-1.8-.4-2.2-.7-.1.1-.1-.2 0-.4zM254.1 80.2c.1.1.3.1.5.1.5 0 .9-.5 1.1-1l.3-.8-2.5-6c-.1-.3 0-.5.3-.5h.5c.2 0 .4.1.5.3l1.5 4c.1.3.2.8.2.8l.2-.8 1.5-4c.1-.2.2-.4.5-.4h.5c.3 0 .5.2.3.5l-2.9 7.2c-.4 1-1.2 1.6-2.1 1.6-.4 0-.7-.1-.9-.2-.2-.1-.3-.3-.2-.6l.1-.2c.2 0 .4-.1.6 0z"
            class="st0" />
        <circle cx="142" cy="75" r="2" class="st0" />
        <circle cx="202" cy="75" r="2" class="st0" />
        <path
            d="M267.8 25.4h-.3c-.2 0-.3-.1-.4-.3l-.7-2.1H265.6v2c0 .2-.1.3-.3.3h-.2c-.2 0-.3-.1-.3-.3v-5.4c0-.2.1-.3.3-.3h1.2c1.1 0 1.6.6 1.6 1.4v.8c0 .6-.2 1-.8 1.3l.8 2.1c.2.4.2.5-.1.5zm-1.4-3.1c.6 0 .8-.3.8-.7v-.8c0-.4-.2-.7-.8-.7h-.7v2.2h.7z"
            class="st0" />
        <path
            d="M266.5 28.5c-3.3 0-6-2.7-6-6s2.7-6 6-6 6 2.7 6 6-2.7 6-6 6zm0-10.9c-2.7 0-4.9 2.2-4.9 4.9s2.2 4.9 4.9 4.9 4.9-2.2 4.9-4.9-2.2-4.9-4.9-4.9z"
            class="st0" />
    </symbol>
    <symbol id="konesso_logo_b2b" data-name="Layer 1" viewBox="0 0 283 99">
        <path
            d="M117.73 26.34v30.75a1.72 1.72 0 0 1-1.92 1.91h-1.72a1.69 1.69 0 0 1-1.88-1.88V26.34a1.72 1.72 0 0 1 1.88-1.92h1.72a1.76 1.76 0 0 1 1.92 1.92zm13.38.31l-6.49 14.54 7 15.55c.56 1.31-.05 2.23-1.47 2.23h-2.22a2.23 2.23 0 0 1-2.23-1.47l-6.39-15a2.88 2.88 0 0 1 0-2.48l6.08-14.13a2.24 2.24 0 0 1 2.18-1.47h2c1.49 0 2.09.91 1.54 2.23zM144.58 59.47c-5.67 0-9-3.09-9-8.35V37.49c0-5.22 3.3-8.36 9-8.36s9 3.14 9 8.36v13.63c-.03 5.26-3.38 8.35-9 8.35zm0-25.48c-2.43 0-3.65 1.32-3.65 3.5v13.63c0 2.22 1.22 3.49 3.65 3.49s3.6-1.27 3.6-3.49V37.49c0-2.18-1.18-3.49-3.6-3.49zM159.88 57.09V31.56a1.72 1.72 0 0 1 1.87-1.92h1.32a1.76 1.76 0 0 1 1.93 1.92v1.06c.55-1.21 2.38-3.19 5.87-3.19 4.31 0 6.79 2.84 6.79 7v20.66a1.73 1.73 0 0 1-1.93 1.91h-1.62a1.69 1.69 0 0 1-1.87-1.88V37.59a3.09 3.09 0 0 0-3.39-3.45 3.35 3.35 0 0 0-3.6 3.4v19.55a1.69 1.69 0 0 1-1.88 1.91h-1.62a1.69 1.69 0 0 1-1.87-1.91zM189 45.85v5.37c0 2.17 1.21 3.44 3.69 3.44s3.7-1.21 3.7-3.29v-.46a1.64 1.64 0 0 1 1.88-1.77h1.52c1.21 0 1.92.56 1.92 1.72v.36c0 5.16-3.39 8.25-9 8.25s-9-3.09-9-8.35V37.49c0-5.22 3.29-8.36 9-8.36s9 3.14 9 8.36v6.43a1.64 1.64 0 0 1-1.21 1.77 2.25 2.25 0 0 1-.87.16zm0-8.46v4.15h7.44v-4.15c0-2.18-1.26-3.45-3.75-3.45S189 35.21 189 37.39zM224.26 50.3v1.22c0 5.22-3.19 7.95-8.86 7.95s-8.82-2.73-8.82-7.85v-.2c0-1.17.56-1.82 1.93-1.82H210a1.68 1.68 0 0 1 1.92 1.92v.1c0 2.13 1.07 3.14 3.5 3.14s3.59-1 3.59-3.14v-.91c0-1.37-.65-2.33-2.33-3.14l-5.36-2.64c-2.79-1.41-4.46-3.54-4.46-6.83v-1c0-5.16 2.94-8 8.61-8s8.61 2.79 8.61 7.75v.2c0 1-.45 1.72-1.77 1.72h-1.62c-1.32 0-1.88-.55-1.88-1.67V37c0-2.13-.86-3.29-3.34-3.29s-3.34 1.11-3.34 3.24v.76c0 1.67.7 2.53 2.28 3.24l5.21 2.69c2.82 1.36 4.64 3.47 4.64 6.66zM245.94 50.3v1.22c0 5.22-3.19 7.95-8.86 7.95s-8.82-2.73-8.82-7.85v-.2c0-1.17.56-1.82 1.93-1.82h1.47a1.68 1.68 0 0 1 1.92 1.92v.1c0 2.13 1.07 3.14 3.5 3.14s3.6-1 3.6-3.14v-.91c0-1.37-.66-2.33-2.33-3.14L233 44.93c-2.79-1.41-4.46-3.54-4.46-6.83v-1c0-5.16 2.94-8 8.61-8s8.61 2.79 8.61 7.75v.2c0 1-.45 1.72-1.77 1.72h-1.62c-1.32 0-1.88-.55-1.88-1.67V37c0-2.13-.86-3.29-3.34-3.29s-3.34 1.11-3.34 3.24v.76c0 1.67.71 2.53 2.28 3.24l5.21 2.69c2.82 1.36 4.64 3.47 4.64 6.66zM259.87 59.47c-5.67 0-9-3.09-9-8.35V37.49c0-5.22 3.29-8.36 9-8.36s9 3.14 9 8.36v13.63c-.03 5.26-3.37 8.35-9 8.35zm0-25.48c-2.43 0-3.64 1.32-3.64 3.5v13.63c0 2.22 1.21 3.49 3.64 3.49s3.6-1.27 3.6-3.49V37.49c0-2.18-1.22-3.49-3.6-3.49zM53 14.24a34.94 34.94 0 1 1-34.95 34.93A35 35 0 0 1 53 14.24m0-4.33a39.27 39.27 0 1 0 39.25 39.26A39.27 39.27 0 0 0 53 9.91z"
            class="cls-1" />
        <rect width="4" height="39" x="37" y="30" class="cls-1" rx="1" ry="1" />
        <path
            d="M66.89 28.94a.83.83 0 0 0-.73-.12l-1.73.52C56.56 31.71 46 40.75 43.7 49.18c1.38 5 5.39 10 10 13.83v6a6.74 6.74 0 0 0 13.47 0V29.6a.82.82 0 0 0-.28-.66zM48.21 49.18c1.64-4.64 8.17-11.48 14.68-14.6v29.21c-6.5-3.08-13.03-9.94-14.68-14.61zm12.28 22.23A2.41 2.41 0 0 1 58.08 69v-2.91a29.93 29.93 0 0 0 4.81 2.4V69a2.41 2.41 0 0 1-2.4 2.41z"
            class="cls-1" />
        <path
            d="M112.22 69.13c0-.26.12-.4.38-.4h3.46a2.78 2.78 0 0 1 3.06 2.83 2.61 2.61 0 0 1-1.45 2.44 2.74 2.74 0 0 1 1.89 2.79 3.09 3.09 0 0 1-3.37 3.21h-3.59c-.26 0-.38-.14-.38-.4zm3.84 4.48a1.84 1.84 0 0 0 1.9-2 1.79 1.79 0 0 0-1.96-1.89h-2.72v3.89zm.14 5.39a2 2 0 0 0 2.21-2.19 2.11 2.11 0 0 0-2.22-2.23h-2.87V79zM122.25 72.33a.35.35 0 0 1 .38-.4h.31a.37.37 0 0 1 .4.4v4.43c0 1.27.19 2.39 1.74 2.39a3.13 3.13 0 0 0 3-3.36v-3.46a.36.36 0 0 1 .4-.4h.3a.36.36 0 0 1 .39.4v7.25a.35.35 0 0 1-.39.4h-.29a.35.35 0 0 1-.38-.4v-.93a3.23 3.23 0 0 1 0-.57 3.51 3.51 0 0 1-3.17 2.09c-1.91 0-2.69-1-2.69-3.12zM131.82 78.7l.12-.16c.15-.19.32-.21.55-.06a3.5 3.5 0 0 0 2.13.73c.89 0 1.63-.44 1.63-1.29 0-1.81-4.31-1.27-4.31-3.92 0-1.49 1.27-2.26 2.74-2.26a3.73 3.73 0 0 1 2.21.66.33.33 0 0 1 .11.52l-.11.18a.35.35 0 0 1-.54.11 3 3 0 0 0-1.73-.51c-.85 0-1.59.37-1.59 1.25 0 1.85 4.29 1.26 4.29 4 0 1.33-1.12 2.27-2.72 2.27a4.24 4.24 0 0 1-2.72-.92.36.36 0 0 1-.06-.6zM139.86 69.71v-.58a.35.35 0 0 1 .39-.4h.4a.35.35 0 0 1 .38.4v.58a.34.34 0 0 1-.38.38h-.4a.34.34 0 0 1-.39-.38zm0 2.62a.36.36 0 0 1 .4-.4h.3a.35.35 0 0 1 .38.4v7.25c0 .26-.12.4-.38.4h-.3a.36.36 0 0 1-.4-.4zM144.15 72.33a.37.37 0 0 1 .4-.4h.29a.36.36 0 0 1 .38.4v.93a2.87 2.87 0 0 1-.06.58 3.56 3.56 0 0 1 3.25-2.1c2 0 2.71 1.13 2.71 3.12v4.72a.36.36 0 0 1-.4.4h-.31a.35.35 0 0 1-.38-.4v-4.43c0-1.27-.21-2.39-1.76-2.39a3.13 3.13 0 0 0-3.03 3.24v3.54a.35.35 0 0 1-.38.4h-.31a.36.36 0 0 1-.4-.4zM157.63 71.74c2.14 0 3.36 1.55 3.36 3.84a.41.41 0 0 1-.42.4h-5.79a3.06 3.06 0 0 0 3.12 3.22 3.43 3.43 0 0 0 2.11-.74.34.34 0 0 1 .53.1l.13.19a.37.37 0 0 1-.12.53 4.57 4.57 0 0 1-2.68.89 4.06 4.06 0 0 1-4.21-4.17 3.92 3.92 0 0 1 3.97-4.26zm2.25 3.42a2.32 2.32 0 0 0-2.29-2.53 2.78 2.78 0 0 0-2.77 2.53zM163.08 78.7l.13-.16a.35.35 0 0 1 .54-.06 3.5 3.5 0 0 0 2.13.73c.9 0 1.63-.44 1.63-1.29 0-1.81-4.3-1.27-4.3-3.92 0-1.49 1.26-2.26 2.74-2.26a3.67 3.67 0 0 1 2.2.66.34.34 0 0 1 .12.52l-.12.18c-.12.22-.32.24-.54.11a3 3 0 0 0-1.73-.51c-.85 0-1.58.37-1.58 1.25 0 1.85 4.29 1.26 4.29 4 0 1.33-1.12 2.27-2.72 2.27a4.3 4.3 0 0 1-2.73-.92.37.37 0 0 1-.06-.6zM170.66 78.7l.13-.16c.15-.19.32-.21.55-.06a3.47 3.47 0 0 0 2.13.73c.89 0 1.63-.44 1.63-1.29 0-1.81-4.31-1.27-4.31-3.92 0-1.49 1.27-2.26 2.74-2.26a3.73 3.73 0 0 1 2.21.66.33.33 0 0 1 .11.52l-.11.18c-.13.22-.32.24-.55.11a3 3 0 0 0-1.72-.51c-.85 0-1.59.37-1.59 1.25 0 1.85 4.29 1.26 4.29 4 0 1.33-1.12 2.27-2.72 2.27a4.24 4.24 0 0 1-2.72-.92.37.37 0 0 1-.07-.6zM183.75 72.91h-.67c-.26 0-.38-.13-.38-.39v-.12c0-.26.12-.4.38-.4h.69v-1.89a.36.36 0 0 1 .4-.4h.29a.35.35 0 0 1 .38.4V72h1.63a.36.36 0 0 1 .4.4v.12a.35.35 0 0 1-.4.39h-1.63v4c0 1.86 1.14 2.08 1.76 2.11.32 0 .43.13.43.4v.21c0 .26-.12.39-.44.39a2.67 2.67 0 0 1-2.84-3zM192.84 71.74a4.22 4.22 0 1 1-4.24 4.18 4.16 4.16 0 0 1 4.24-4.18zm0 7.46a3.17 3.17 0 0 0 3.16-3.28 3.13 3.13 0 1 0-6.26 0 3.18 3.18 0 0 0 3.12 3.28zM204.71 69.13a.35.35 0 0 1 .39-.4h3.45a2.78 2.78 0 0 1 3.06 2.83 2.6 2.6 0 0 1-1.44 2.44 2.75 2.75 0 0 1 1.89 2.79 3.1 3.1 0 0 1-3.38 3.21h-3.58a.35.35 0 0 1-.39-.4zm3.84 4.48a1.84 1.84 0 0 0 1.91-2 1.79 1.79 0 0 0-1.92-1.92h-2.72v3.89zm.15 5.39a2 2 0 0 0 2.21-2.19 2.12 2.12 0 0 0-2.23-2.23h-2.86V79zM214.74 72.33a.36.36 0 0 1 .39-.4h.3a.36.36 0 0 1 .4.4v4.43c0 1.27.2 2.39 1.75 2.39a3.12 3.12 0 0 0 3-3.36v-3.46a.37.37 0 0 1 .41-.4h.3a.35.35 0 0 1 .38.4v7.25c0 .26-.12.4-.38.4H221c-.26 0-.38-.14-.38-.4v-.93a4 4 0 0 1 0-.57 3.48 3.48 0 0 1-3.17 2.09c-1.9 0-2.69-1-2.69-3.12zM224.31 78.7l.13-.16a.35.35 0 0 1 .54-.06 3.52 3.52 0 0 0 2.13.73c.9 0 1.64-.44 1.64-1.29 0-1.81-4.31-1.27-4.31-3.92 0-1.49 1.26-2.26 2.74-2.26a3.73 3.73 0 0 1 2.21.66.34.34 0 0 1 .11.52l-.11.18c-.13.22-.32.24-.55.11a3 3 0 0 0-1.73-.51c-.85 0-1.58.37-1.58 1.25 0 1.85 4.29 1.26 4.29 4 0 1.33-1.12 2.27-2.72 2.27a4.24 4.24 0 0 1-2.72-.92.36.36 0 0 1-.07-.6zM232.36 69.71v-.58a.35.35 0 0 1 .38-.4h.4a.35.35 0 0 1 .39.4v.58a.34.34 0 0 1-.39.38h-.4a.34.34 0 0 1-.38-.38zm0 2.62a.37.37 0 0 1 .4-.4h.31a.35.35 0 0 1 .38.4v7.25a.35.35 0 0 1-.38.4h-.31a.36.36 0 0 1-.4-.4zM236.65 72.33a.36.36 0 0 1 .4-.4h.29a.36.36 0 0 1 .38.4v.93a2.87 2.87 0 0 1-.06.58 3.55 3.55 0 0 1 3.25-2.1c2 0 2.7 1.13 2.7 3.12v4.72a.36.36 0 0 1-.4.4h-.3a.35.35 0 0 1-.39-.4v-4.43c0-1.27-.2-2.39-1.76-2.39a3.12 3.12 0 0 0-3 3.28v3.54a.35.35 0 0 1-.39.4h-.3a.36.36 0 0 1-.4-.4zM250.12 71.74c2.15 0 3.36 1.55 3.36 3.84a.4.4 0 0 1-.41.4h-5.8a3.07 3.07 0 0 0 3.12 3.22 3.46 3.46 0 0 0 2.12-.74c.22-.14.4-.11.52.1l.13.19a.38.38 0 0 1-.11.53 4.58 4.58 0 0 1-2.69.89 4.07 4.07 0 0 1-4.21-4.17 3.92 3.92 0 0 1 3.97-4.26zm2.26 3.42a2.32 2.32 0 0 0-2.29-2.53 2.78 2.78 0 0 0-2.77 2.53zM255.58 78.7l.12-.16c.15-.19.32-.21.55-.06a3.5 3.5 0 0 0 2.13.73c.89 0 1.63-.44 1.63-1.29 0-1.81-4.31-1.27-4.31-3.92 0-1.49 1.27-2.26 2.74-2.26a3.73 3.73 0 0 1 2.21.66.33.33 0 0 1 .11.52l-.11.18a.35.35 0 0 1-.54.11 3 3 0 0 0-1.73-.51c-.85 0-1.59.37-1.59 1.25 0 1.85 4.29 1.26 4.29 4 0 1.33-1.12 2.27-2.72 2.27a4.24 4.24 0 0 1-2.72-.92.36.36 0 0 1-.06-.6zM263.16 78.7l.13-.16a.35.35 0 0 1 .54-.06 3.5 3.5 0 0 0 2.13.73c.9 0 1.63-.44 1.63-1.29 0-1.81-4.3-1.27-4.3-3.92 0-1.49 1.26-2.26 2.73-2.26a3.68 3.68 0 0 1 2.21.66.34.34 0 0 1 .12.52l-.12.18c-.12.22-.32.24-.54.11a3 3 0 0 0-1.69-.51c-.85 0-1.58.37-1.58 1.25 0 1.85 4.29 1.26 4.29 4 0 1.33-1.12 2.27-2.73 2.27a4.26 4.26 0 0 1-2.72-.92.36.36 0 0 1-.1-.6z" />
    </symbol>
    <symbol id="logo_swieta" viewBox="0 0 310 110">
        <g transform="translate(8 -10)">
            <path
                d="M143.88 48.232v30.7c0 1.2-.7 1.9-1.9 1.9h-1.7c-1.2 0-1.9-.7-1.9-1.9v-30.7c0-1.2.7-1.9 1.9-1.9h1.7c1.2-.1 1.9.6 1.9 1.9zm13.4.3l-6.5 14.5 7 15.6c.6 1.3-.1 2.2-1.5 2.2h-2.2c-1.1 0-1.8-.5-2.2-1.5l-6.4-15c-.4-.9-.4-1.6.1-2.5l6.1-14.1c.5-1 1.1-1.5 2.2-1.5h2c1.4 0 2 .9 1.4 2.3zm13.5 32.8c-5.7 0-9-3.1-9-8.4v-13.6c0-5.2 3.3-8.4 9-8.4 5.6 0 9 3.1 9 8.4v13.6c-.1 5.3-3.4 8.4-9 8.4zm0-25.5c-2.4 0-3.6 1.3-3.6 3.5v13.6c0 2.2 1.2 3.5 3.6 3.5 2.4 0 3.6-1.3 3.6-3.5v-13.6c0-2.2-1.2-3.5-3.6-3.5zm15.3 23.1v-25.5c0-1.2.7-1.9 1.9-1.9h1.3c1.2 0 1.9.7 1.9 1.9v1.1c.6-1.2 2.4-3.2 5.9-3.2 4.3 0 6.8 2.8 6.8 7v20.6c0 1.2-.7 1.9-1.9 1.9h-1.7c-1.2 0-1.9-.7-1.9-1.9v-19.5c0-2.2-1.2-3.4-3.4-3.4-1.9 0-3.6 1.2-3.6 3.4v19.6c0 1.2-.7 1.9-1.9 1.9h-1.6c-1.2-.1-1.8-.8-1.8-2zm29.1-11.2v5.4c0 2.2 1.2 3.4 3.7 3.4s3.7-1.2 3.7-3.3v-.5c0-1.2.7-1.8 1.9-1.8h1.5c1.2 0 1.9.6 1.9 1.7v.4c0 5.2-3.4 8.3-9 8.3-5.7 0-9-3.1-9-8.4v-13.6c0-5.2 3.3-8.4 9-8.4s9 3.1 9 8.4v6.4c0 1-.5 1.6-1.2 1.8-.3.1-.6.2-.9.2zm0-8.5v4.2h7.4v-4.2c0-2.2-1.3-3.4-3.7-3.4-2.5 0-3.7 1.2-3.7 3.4zm35.3 12.9v1.2c0 5.2-3.2 8-8.9 8-5.6 0-8.8-2.7-8.8-7.9v-.2c0-1.2.6-1.8 1.9-1.8h1.5c1.4 0 1.9.7 1.9 1.9v.1c0 2.1 1.1 3.1 3.5 3.1s3.6-1 3.6-3.1v-.9c0-1.4-.7-2.3-2.3-3.1l-5.4-2.6c-2.8-1.4-4.5-3.5-4.5-6.8v-1c0-5.2 2.9-8 8.6-8 5.6 0 8.6 2.8 8.6 7.8v.2c0 1-.5 1.7-1.8 1.7h-1.6c-1.3 0-1.9-.6-1.9-1.7v-.1c0-2.1-.9-3.3-3.3-3.3s-3.3 1.1-3.3 3.2v.8c0 1.7.7 2.5 2.3 3.2l5.2 2.7c2.8 1.3 4.7 3.4 4.7 6.6zm21.6 0v1.2c0 5.2-3.2 8-8.9 8-5.6 0-8.8-2.7-8.8-7.9v-.2c0-1.2.6-1.8 1.9-1.8h1.5c1.4 0 1.9.7 1.9 1.9v.1c0 2.1 1.1 3.1 3.5 3.1s3.6-1 3.6-3.1v-.9c0-1.4-.7-2.3-2.3-3.1l-5.4-2.6c-2.8-1.4-4.5-3.5-4.5-6.8v-1c0-5.2 2.9-8 8.6-8 5.6 0 8.6 2.8 8.6 7.8v.2c0 1-.5 1.7-1.8 1.7h-1.6c-1.3 0-1.9-.6-1.9-1.7v-.1c0-2.1-.9-3.3-3.3-3.3-2.5 0-3.3 1.1-3.3 3.2v.8c0 1.7.7 2.5 2.3 3.2l5.2 2.7c2.9 1.3 4.7 3.4 4.7 6.6zm14 9.2c-5.7 0-9-3.1-9-8.4v-13.6c0-5.2 3.3-8.4 9-8.4 5.6 0 9 3.1 9 8.4v13.6c-.1 5.3-3.4 8.4-9 8.4zm0-25.5c-2.4 0-3.6 1.3-3.6 3.5v13.6c0 2.2 1.2 3.5 3.6 3.5 2.4 0 3.6-1.3 3.6-3.5v-13.6c0-2.2-1.2-3.5-3.6-3.5zm-206.9-19.7c19.3 0 34.9 15.7 34.9 34.9s-15.6 34.9-34.9 34.9c-19.3 0-34.9-15.6-34.9-34.9 0-19.3 15.6-34.9 34.9-34.9m0-4.4c-21.7 0-39.3 17.6-39.3 39.3 0 21.7 17.6 39.3 39.3 39.3 21.7 0 39.3-17.6 39.3-39.3 0-21.7-17.6-39.3-39.3-39.3z"
                class="st0" />
            <path
                d="M67.58 89.832c0 .5-.4.8-.8.8h-2.5c-.5 0-.8-.4-.8-.8v-37.6c0-.5.4-.8.8-.8h2.4c.5 0 .8.4.8.8v37.6zm25.5-39c-.2-.2-.5-.2-.7-.2l-1.7.5c-7.9 2.4-18.5 11.5-20.8 19.9 1.4 5 5.4 10 10.1 13.8v6a6.7 6.7 0 0 0 13.4 0v-39.4c0-.2-.1-.5-.3-.6zm-18.7 20.2c1.6-4.6 8.2-11.5 14.7-14.6v29.2c-6.5-3.1-13-9.9-14.7-14.6zm12.3 22.2c-1.3 0-2.4-1.1-2.4-2.4v-2.9c1.6 1 3.2 1.8 4.8 2.4v.5c0 1.3-1.1 2.4-2.4 2.4z"
                class="st0" />
            <path
                d="M138.68 92.032c0-.3.1-.4.4-.4h.4c.3 0 .4.1.4.4v3.4h1.4l2.1-3.6c.1-.2.3-.3.5-.3h.5c.3 0 .5.2.3.5l-2.4 3.8 2.5 4.3c.2.3.1.5-.3.5h-.5c-.2 0-.4-.1-.5-.3l-2.3-3.9h-1.4v3.8c0 .3-.1.4-.4.4h-.4c-.3 0-.4-.1-.4-.4v-8.2zm11.1 4.7h.3v-.2c0-1.1-.6-1.4-1.4-1.4-.7 0-1.2.2-1.5.4-.2.1-.4.1-.6-.2l-.1-.2c-.1-.2-.1-.5.1-.6.4-.2 1.1-.6 2.1-.6 1.6 0 2.6.9 2.6 2.6v3.7c0 .3-.2.4-.4.4h-.3c-.3 0-.4-.1-.4-.4v-.8s-.6 1.4-2.1 1.4c-1.2 0-2.2-.7-2.2-2-.1-1.9 2.5-2.1 3.9-2.1zm-1.5 3.2c1.1 0 1.8-1.1 1.8-2.1v-.3h-.3c-.9 0-2.7.1-2.7 1.3 0 .6.4 1.1 1.2 1.1zm4.2-5.3c-.1-.3.1-.5.4-.5h.4c.3 0 .4.1.5.4l1.3 4.3c.1.3.2.7.2.7s.1-.4.2-.7l1.3-4.2c.1-.2.2-.4.5-.4h.4c.3 0 .4.1.5.4l1.3 4.2c.1.3.2.7.2.7s.1-.4.2-.7l1.3-4.3c.1-.2.2-.4.5-.4h.4c.3 0 .5.2.4.5l-1.9 5.7c-.1.2-.2.4-.5.4h-.6c-.3 0-.4-.1-.5-.4l-1.3-3.9c-.1-.3-.2-.7-.2-.7s-.1.4-.2.7l-1.2 3.9c-.1.2-.2.4-.5.4h-.7c-.2 0-.4-.1-.5-.4zm11 7.7c.1.1.3.1.5.1.5 0 .9-.5 1.1-1l.3-.8-2.5-6c-.1-.3 0-.5.3-.5h.5c.2 0 .4.1.5.3l1.5 4c.1.3.2.8.2.8l.2-.8 1.5-4c.1-.2.2-.4.5-.4h.5c.3 0 .5.2.3.5l-2.9 7.2c-.4 1-1.2 1.6-2.1 1.6-.4 0-.7-.1-.9-.2-.2-.1-.3-.3-.2-.6l.1-.2c.2-.1.4-.1.6 0zm20.4-10.3c0-.3.1-.4.4-.4h.4c.3 0 .4.1.4.4v3.6h4.8v-3.6c0-.3.2-.4.4-.4h.4c.3 0 .4.1.4.4v8.3c0 .3-.1.4-.4.4h-.4c-.3 0-.4-.1-.4-.4v-3.6h-4.8v3.6c0 .3-.1.4-.4.4h-.4c-.3 0-.4-.1-.4-.4zm12.2 2c1.8 0 2.8 1.3 2.8 3.1 0 .2-.2.4-.4.4h-4.4c.1 1.4 1.1 2.2 2.3 2.2.7 0 1.3-.3 1.6-.5.2-.1.4-.1.6.1l.1.2c.1.2.1.4-.1.6-.4.3-1.2.7-2.2.7-2.1 0-3.5-1.5-3.5-3.4 0-2.1 1.4-3.4 3.2-3.4zm1.6 2.7c0-1.2-.7-1.8-1.6-1.8-1 0-1.7.6-1.9 1.8zm2.7-2.1c0-.3.2-.4.4-.4h.4c.3 0 .4.1.4.4v1.3c.3-.9 1-1.7 2-1.7.3 0 .4.1.4.4v.4c0 .3-.2.4-.5.4-1.3 0-1.9 1.4-1.9 2.7v2.3c0 .3-.1.4-.4.4h-.4c-.3 0-.4-.1-.4-.4zm4.8-2.6c0-.3.1-.4.4-.4h.4c.3 0 .4.1.4.4v3.2s.6-1.2 2.1-1.2c1.7 0 2.9 1.4 2.9 3.4 0 2.1-1.3 3.5-3 3.5-1.5 0-2.1-1.2-2.1-1.2v.7c0 .2-.2.4-.4.4h-.3c-.3 0-.4-.1-.4-.4zm3 7.8c1.1 0 1.9-.8 1.9-2.3 0-1.4-.8-2.4-1.9-2.4-1 0-1.9.7-1.9 2.3.1 1.3.7 2.4 1.9 2.4zm8.1-3.1h.3v-.2c0-1.1-.6-1.4-1.4-1.4-.7 0-1.2.2-1.5.4-.2.1-.4.1-.6-.2l-.1-.2c-.1-.2-.1-.5.1-.6.4-.2 1.1-.6 2.1-.6 1.6 0 2.6.9 2.6 2.6v3.7c0 .3-.2.4-.4.4h-.3c-.3 0-.4-.1-.4-.4v-.8s-.6 1.4-2.1 1.4c-1.2 0-2.2-.7-2.2-2 0-1.9 2.6-2.1 3.9-2.1zm-1.4 3.2c1.1 0 1.8-1.1 1.8-2.1v-.3h-.3c-.9 0-2.7.1-2.7 1.3 0 .6.4 1.1 1.2 1.1zm5.1-4.7h-.5c-.3 0-.4-.2-.4-.4v-.2c0-.3.1-.4.4-.4h.5v-1.4c0-.3.2-.4.4-.4h.4c.3 0 .4.1.4.4v1.4h1.1c.3 0 .4.2.4.4v.2c0 .3-.1.4-.4.4h-1v2.9c0 1.2.8 1.4 1.2 1.5.3 0 .5.1.5.4v.3c0 .3-.2.4-.5.4-1.3 0-2.4-.8-2.4-2.4v-3.1zm4.1 7.1c.1.1.3.1.5.1.5 0 .9-.5 1.1-1l.3-.8-2.5-6c-.1-.3 0-.5.3-.5h.5c.2 0 .4.1.5.3l1.5 4c.1.3.2.8.2.8l.2-.8 1.5-4c.1-.2.2-.4.5-.4h.5c.3 0 .5.2.3.5l-2.9 7.2c-.4 1-1.2 1.6-2.1 1.6-.4 0-.7-.1-.9-.2-.2-.1-.3-.3-.2-.6l.1-.2c.2-.1.4-.1.6 0zm20.4-10.3c0-.3.1-.4.4-.4h4.5c.3 0 .4.1.4.4v.3c0 .3-.1.4-.4.4h-3.6v2.9h2.9c.3 0 .4.1.4.4v.3c0 .3-.2.4-.4.4h-2.9v3h3.8c.3 0 .4.1.4.4v.3c0 .3-.1.4-.4.4h-4.7c-.3 0-.4-.1-.4-.4zm7 0c0-.3.1-.4.4-.4h.4c.3 0 .4.1.4.4v4.6h.9l1.6-2.1c.1-.2.3-.3.5-.3h.5c.4 0 .5.2.3.5l-1.8 2.4 2.1 3.1c.2.3.1.5-.3.5h-.5c-.2 0-.4-.1-.5-.3l-1.8-2.8h-1v2.7c0 .3-.1.4-.4.4h-.4c-.3 0-.4-.1-.4-.4zm6.4 7.6l.1-.2c.2-.2.3-.2.6-.1.3.2.8.5 1.6.5.7 0 1.1-.3 1.1-.9 0-1.3-3.4-.9-3.4-3.1 0-1.2 1.1-1.9 2.4-1.9.9 0 1.5.3 1.8.5.2.1.3.3.1.6l-.1.2c-.1.2-.3.3-.6.1-.3-.2-.7-.4-1.3-.4-.6 0-1.1.3-1.1.8 0 1.3 3.4.8 3.4 3.1 0 1.1-.9 1.9-2.4 1.9-1.1 0-1.8-.4-2.2-.7-.2 0-.2-.2 0-.4zm6.1-5c0-.3.1-.4.4-.4h.3c.3 0 .4.1.4.4v.8s.6-1.3 2.2-1.3c1.8 0 2.9 1.4 2.9 3.4 0 2.1-1.3 3.4-3 3.4-1.5 0-2-1.2-2-1.2v3.2c0 .3-.1.4-.4.4h-.4c-.3 0-.4-.1-.4-.4zm3.1 5.2c1 0 1.9-.8 1.9-2.3 0-1.4-.8-2.4-1.9-2.4-1 0-1.9.7-1.9 2.4.1 1.1.7 2.3 1.9 2.3zm4.7-5.2c0-.3.2-.4.4-.4h.4c.3 0 .4.1.4.4v1.3c.3-.9 1-1.7 2-1.7.3 0 .4.1.4.4v.4c0 .3-.2.4-.5.4-1.3 0-1.9 1.4-1.9 2.7v2.3c0 .3-.1.4-.4.4h-.4c-.3 0-.4-.1-.4-.4zm7.4-.6c1.8 0 2.8 1.3 2.8 3.1 0 .2-.2.4-.4.4h-4.4c.1 1.4 1.1 2.2 2.3 2.2.7 0 1.3-.3 1.6-.5.2-.1.4-.1.6.1l.1.2c.1.2.1.4-.1.6-.4.3-1.2.7-2.2.7-2.1 0-3.5-1.5-3.5-3.4-.1-2.1 1.3-3.4 3.2-3.4zm1.6 2.7c0-1.2-.7-1.8-1.6-1.8-1 0-1.7.6-1.9 1.8zm2.3 2.9l.1-.2c.2-.2.3-.2.6-.1.3.2.8.5 1.6.5.6 0 1.1-.3 1.1-.9 0-1.3-3.4-.9-3.4-3.1 0-1.2 1.1-1.9 2.4-1.9.9 0 1.5.3 1.8.5.2.1.3.3.1.6l-.1.2c-.1.2-.3.3-.6.1-.3-.2-.7-.4-1.3-.4-.6 0-1.1.3-1.1.8 0 1.3 3.4.8 3.4 3.1 0 1.1-.9 1.9-2.4 1.9-1.1 0-1.8-.4-2.2-.7-.1 0-.1-.2 0-.4zm6 2.7c.1.1.3.1.5.1.5 0 .9-.5 1.1-1l.3-.8-2.5-6c-.1-.3 0-.5.3-.5h.5c.2 0 .4.1.5.3l1.5 4c.1.3.2.8.2.8l.2-.8 1.5-4c.1-.2.2-.4.5-.4h.5c.3 0 .5.2.3.5l-2.9 7.2c-.4 1-1.2 1.6-2.1 1.6-.4 0-.7-.1-.9-.2-.2-.1-.3-.3-.2-.6l.1-.2c.3-.1.5-.1.6 0z" />
            <circle cx="176" cy="97" r="2" />
            <circle cx="236" cy="97" r="2" />
            <g stroke-width="4">
                <path fill="#d00000" fill-rule="evenodd" stroke="#000"
                    d="M216.715 52.88c-28.1 7.734-49.97 14.639-70.232 29.53-20.263 14.893-54.677 45.165-66.76 57.056-11.717 11.528-27.006 19.456-33.062 33.662 5.962 11.101 12.507 11.953 12.788 11.446 16.635 21.62 23.505 2.623 30.378 2.151 22.308-1.53 45.967-10.564 68.56 4.727-4.18 4.221 2.458-.323-6.088 36.694-3.013 13.053-9.599 46.919-1.507 53.38 8.04 6.42 12.95-18.605 20.937-14.774-.004.006-.002.021-.005.026-.002.005-.004.023-.005.027 0 .004-.006.023-.005.026.003.003.021.003.025.005a.431.431 0 0 0 .129-.002c.015.007.034.002.05.01.056.027.107.06.164.087l.048-.127c3.781-.978 33.263-13.966 60.176-8.743 15.171 2.944 39.37-5.31 53.29-9.616 22.076-6.828 53.068-12.998 72.728-13.35 14.483-.26 27.587-8.46 41.52-9.415 8.22-.564.599-27.066.429-29.866-.817-13.455-17.565-34.13-26.191-52.503-8.626-18.374-23.082-41.697-39.004-59.987-15.92-18.29-41.166-23.968-56.29-31.255-15.123-7.287-31.575-7.583-62.073.81z"
                    transform="matrix(.17093 -.15496 .15471 .17054 -31 58)" />
                <path fill="#fff" fill-rule="evenodd" stroke="#000" stroke-width="3"
                    d="M372.087 184.121c-7.156-2.397-3.032-5.32-9.424-4.769-4.294-3.614-16.662 2.739-20.49 4.05-.465-7.147-14.539-2.172-19.17-2.001-3.334 1.975-10.133-4.619-16.09-1.608-7.337.872-7.754 8.45-13.242 10.944-1.49 7.83-15.966 14.279-17.516 5.774-6.459 2.949-13.021 18.751-12.886 9.914-11.984-.239-16.348 5.383-26.43 9.473 1.05-6.924-17.985 3.892-21.233 11.21-6.249 2.653-2.978 3.75-11.999 7.147-10.004-2.7-3.984 10.58-15.905 6.77 11.586-40.123-19.353-15.92-27.068-8.767-2.186 7.38-14.498 9.25-18.043 9.883 5.613 8.146-6.516 34.64.192 47.249-1.79 9.93.415 16.983 11.198 18.782 3.622-4.857 7.075-8.846 7.648-.06 6.3-1.98 14.772-12.651 13.67-1.869 4.4-6.596 17.919-10.306 17.917-17.297 6.785.553 14.235 8.001 20.199-1.414 5.928-6.992 6.746-1.423 6.707 3.867 6.85 6.406 15.125-3.89 22.45-5.739-1.674-8.433 17.061-.994 7.27-9.193 4.065-4.09 14.863-6.682 21.037-5.444 5.323 5.06 19.81 4.598 22.662-5.863.742-8.192 17.967-13.486 22.582-7.946 8.437-7.477 11.946 3.916 19.19-1.835 4.413-7.893 12.088-7.677 19.114-3.056 5.731-3.189 11.26-14.3 17.262-6.586 7.175-2.503 15.946-5.954 22.026-8.528 4.341 7.378 16.227-.607 11.372-9.546-2.591-6.406 8.941 2.969 5.935-5.166.296-9.4 6.213-39.026-5.44-35.51-8.485-1.938-6.553-18.36-7.103-10.162.035-5.973-6.18-2.243-11.521.052l-7.32.329-3.39 4.976"
                    transform="matrix(.17093 -.15496 .15471 .17054 -31 58)" />
                <path fill="none" stroke="#000"
                    d="M155.68 210.888c3.14-40.847 23.785-59.45 20.151-92.12-2.148-19.31-19.537-4.673-13.87 13.441"
                    transform="matrix(.17093 -.15496 .15471 .17054 -31 58)" />
                <path fill="#fff" fill-rule="evenodd" stroke="#000"
                    d="M56.554 161.937c-1.302-2.318-5.357-2.956-5.88-4.922.907-2.284-2.658-.628-3.361-1.883-4.194 3.434-9.984 4.92-13.093 9.643 1.653-.363 1.65-2.779-.157-.996-3.4 1.69-6.688 4.657-5.409 8.892.31 2.174-2.426 4.044.914 4.558-.436 3.48-5.655 3.333-5.658 6.404 1.155 3.35.647 6.84-2.101 9.19-2.718 2.541-1.599 6.283-1.5 9.37-1.367 2.066-2.136 3.986-.334 5.953.381 3.549 3.327 5.898 3.348 9.59 1.24 1.935 3.727 1.815 4.997 4.002 3.71.315 3.983 5.496 7.518 6.215 3.036.99 6.628.303 9.364 1.03 2.244 1.818 4.82 3.086 7.644 3.597 3.55 2.26 4.758-3.365 6.907-5.176.111-2.832 2.146-3.052 3.508-.667 3.101 2.102 6.314-1.519 8.537-3.434 2.174-2.37 4.612-4.42 7.032-6.497 3.436-3.88 4.656-9.43 4.464-14.536.34-3.199-2.634-3.376-4.59-3.741.884-2.683 3.113-6.542-1.433-6.829-2.607-.68-8.517-3.594-5.133-6.662 2.498-2.919-.94-6.848-2.473-9.484-2.656-2.114-4.2-5.06-5.851-7.63-3.198-.51-6.195-2.453-7.01-5.845-.853-2.695-.236-.7.033.612"
                    transform="matrix(.17093 -.15496 .15471 .17054 -31 58)" />
                <path fill-opacity="0" fill-rule="evenodd"
                    d="M26.189 66.596s-2.938-7.751-4.467-10.52c-1.43-2.592-4.45-5.789-5.752-5.706-1.304.083-1.353 2.028-.338 3.357 1.015 1.33 1.21 1.72 3.853 3.614 1.198.859 3.378 3.493 4.149 4.97.77 1.478 2.554 4.817 2.555 4.285z" />
            </g>
        </g>
    </symbol>
    <symbol id="logo_swieta_notagline" viewBox="0 0 310 110">
        <path
            d="M151.38 38.232v30.7c0 1.2-.7 1.9-1.9 1.9h-1.7c-1.2 0-1.9-.7-1.9-1.9v-30.7c0-1.2.7-1.9 1.9-1.9h1.7c1.2-.1 1.9.6 1.9 1.9zm13.4.3l-6.5 14.5 7 15.6c.6 1.3-.1 2.2-1.5 2.2h-2.2c-1.1 0-1.8-.5-2.2-1.5l-6.4-15c-.4-.9-.4-1.6.1-2.5l6.1-14.1c.5-1 1.1-1.5 2.2-1.5h2c1.4 0 2 .9 1.4 2.3zm13.5 32.8c-5.7 0-9-3.1-9-8.4v-13.6c0-5.2 3.3-8.4 9-8.4 5.6 0 9 3.1 9 8.4v13.6c-.1 5.3-3.4 8.4-9 8.4zm0-25.5c-2.4 0-3.6 1.3-3.6 3.5v13.6c0 2.2 1.2 3.5 3.6 3.5 2.4 0 3.6-1.3 3.6-3.5v-13.6c0-2.2-1.2-3.5-3.6-3.5zm15.3 23.1v-25.5c0-1.2.7-1.9 1.9-1.9h1.3c1.2 0 1.9.7 1.9 1.9v1.1c.6-1.2 2.4-3.2 5.9-3.2 4.3 0 6.8 2.8 6.8 7v20.6c0 1.2-.7 1.9-1.9 1.9h-1.7c-1.2 0-1.9-.7-1.9-1.9v-19.5c0-2.2-1.2-3.4-3.4-3.4-1.9 0-3.6 1.2-3.6 3.4v19.6c0 1.2-.7 1.9-1.9 1.9h-1.6c-1.2-.1-1.8-.8-1.8-2zm29.1-11.2v5.4c0 2.2 1.2 3.4 3.7 3.4s3.7-1.2 3.7-3.3v-.5c0-1.2.7-1.8 1.9-1.8h1.5c1.2 0 1.9.6 1.9 1.7v.4c0 5.2-3.4 8.3-9 8.3-5.7 0-9-3.1-9-8.4v-13.6c0-5.2 3.3-8.4 9-8.4s9 3.1 9 8.4v6.4c0 1-.5 1.6-1.2 1.8-.3.1-.6.2-.9.2zm0-8.5v4.2h7.4v-4.2c0-2.2-1.3-3.4-3.7-3.4-2.5 0-3.7 1.2-3.7 3.4zm35.3 12.9v1.2c0 5.2-3.2 8-8.9 8-5.6 0-8.8-2.7-8.8-7.9v-.2c0-1.2.6-1.8 1.9-1.8h1.5c1.4 0 1.9.7 1.9 1.9v.1c0 2.1 1.1 3.1 3.5 3.1s3.6-1 3.6-3.1v-.9c0-1.4-.7-2.3-2.3-3.1l-5.4-2.6c-2.8-1.4-4.5-3.5-4.5-6.8v-1c0-5.2 2.9-8 8.6-8 5.6 0 8.6 2.8 8.6 7.8v.2c0 1-.5 1.7-1.8 1.7h-1.6c-1.3 0-1.9-.6-1.9-1.7v-.1c0-2.1-.9-3.3-3.3-3.3s-3.3 1.1-3.3 3.2v.8c0 1.7.7 2.5 2.3 3.2l5.2 2.7c2.8 1.3 4.7 3.4 4.7 6.6zm21.6 0v1.2c0 5.2-3.2 8-8.9 8-5.6 0-8.8-2.7-8.8-7.9v-.2c0-1.2.6-1.8 1.9-1.8h1.5c1.4 0 1.9.7 1.9 1.9v.1c0 2.1 1.1 3.1 3.5 3.1s3.6-1 3.6-3.1v-.9c0-1.4-.7-2.3-2.3-3.1l-5.4-2.6c-2.8-1.4-4.5-3.5-4.5-6.8v-1c0-5.2 2.9-8 8.6-8 5.6 0 8.6 2.8 8.6 7.8v.2c0 1-.5 1.7-1.8 1.7h-1.6c-1.3 0-1.9-.6-1.9-1.7v-.1c0-2.1-.9-3.3-3.3-3.3-2.5 0-3.3 1.1-3.3 3.2v.8c0 1.7.7 2.5 2.3 3.2l5.2 2.7c2.9 1.3 4.7 3.4 4.7 6.6zm14 9.2c-5.7 0-9-3.1-9-8.4v-13.6c0-5.2 3.3-8.4 9-8.4 5.6 0 9 3.1 9 8.4v13.6c-.1 5.3-3.4 8.4-9 8.4zm0-25.5c-2.4 0-3.6 1.3-3.6 3.5v13.6c0 2.2 1.2 3.5 3.6 3.5 2.4 0 3.6-1.3 3.6-3.5v-13.6c0-2.2-1.2-3.5-3.6-3.5zm-206.9-19.7c19.3 0 34.9 15.7 34.9 34.9s-15.6 34.9-34.9 34.9c-19.3 0-34.9-15.6-34.9-34.9 0-19.3 15.6-34.9 34.9-34.9m0-4.4c-21.7 0-39.3 17.6-39.3 39.3 0 21.7 17.6 39.3 39.3 39.3 21.7 0 39.3-17.6 39.3-39.3 0-21.7-17.6-39.3-39.3-39.3z"
            class="st0" />
        <path
            d="M75.08 79.832c0 .5-.4.8-.8.8h-2.5c-.5 0-.8-.4-.8-.8v-37.6c0-.5.4-.8.8-.8h2.4c.5 0 .8.4.8.8v37.6zm25.5-39c-.2-.2-.5-.2-.7-.2l-1.7.5c-7.9 2.4-18.5 11.5-20.8 19.9 1.4 5 5.4 10 10.1 13.8v6a6.7 6.7 0 0 0 13.4 0v-39.4c0-.2-.1-.5-.3-.6zm-18.7 20.2c1.6-4.6 8.2-11.5 14.7-14.6v29.2c-6.5-3.1-13-9.9-14.7-14.6zm12.3 22.2c-1.3 0-2.4-1.1-2.4-2.4v-2.9c1.6 1 3.2 1.8 4.8 2.4v.5c0 1.3-1.1 2.4-2.4 2.4z"
            class="st0" />
        <g stroke-width="4">
            <path fill="#d00000" fill-rule="evenodd" stroke="#000"
                d="M216.715 52.88c-28.1 7.734-49.97 14.639-70.232 29.53-20.263 14.893-54.677 45.165-66.76 57.056-11.717 11.528-27.006 19.456-33.062 33.662 5.962 11.101 12.507 11.953 12.788 11.446 16.635 21.62 23.505 2.623 30.378 2.151 22.308-1.53 45.967-10.564 68.56 4.727-4.18 4.221 2.458-.323-6.088 36.694-3.013 13.053-9.599 46.919-1.507 53.38 8.04 6.42 12.95-18.605 20.937-14.774-.004.006-.002.021-.005.026-.002.005-.004.023-.005.027 0 .004-.006.023-.005.026.003.003.021.003.025.005a.431.431 0 0 0 .129-.002c.015.007.034.002.05.01.056.027.107.06.164.087l.048-.127c3.781-.978 33.263-13.966 60.176-8.743 15.171 2.944 39.37-5.31 53.29-9.616 22.076-6.828 53.068-12.998 72.728-13.35 14.483-.26 27.587-8.46 41.52-9.415 8.22-.564.599-27.066.429-29.866-.817-13.455-17.565-34.13-26.191-52.503-8.626-18.374-23.082-41.697-39.004-59.987-15.92-18.29-41.166-23.968-56.29-31.255-15.123-7.287-31.575-7.583-62.073.81z"
                transform="matrix(.17093 -.15496 .15471 .17054 -23 48)" />
            <path fill="#fff" fill-rule="evenodd" stroke="#000" stroke-width="3"
                d="M372.087 184.121c-7.156-2.397-3.032-5.32-9.424-4.769-4.294-3.614-16.662 2.739-20.49 4.05-.465-7.147-14.539-2.172-19.17-2.001-3.334 1.975-10.133-4.619-16.09-1.608-7.337.872-7.754 8.45-13.242 10.944-1.49 7.83-15.966 14.279-17.516 5.774-6.459 2.949-13.021 18.751-12.886 9.914-11.984-.239-16.348 5.383-26.43 9.473 1.05-6.924-17.985 3.892-21.233 11.21-6.249 2.653-2.978 3.75-11.999 7.147-10.004-2.7-3.984 10.58-15.905 6.77 11.586-40.123-19.353-15.92-27.068-8.767-2.186 7.38-14.498 9.25-18.043 9.883 5.613 8.146-6.516 34.64.192 47.249-1.79 9.93.415 16.983 11.198 18.782 3.622-4.857 7.075-8.846 7.648-.06 6.3-1.98 14.772-12.651 13.67-1.869 4.4-6.596 17.919-10.306 17.917-17.297 6.785.553 14.235 8.001 20.199-1.414 5.928-6.992 6.746-1.423 6.707 3.867 6.85 6.406 15.125-3.89 22.45-5.739-1.674-8.433 17.061-.994 7.27-9.193 4.065-4.09 14.863-6.682 21.037-5.444 5.323 5.06 19.81 4.598 22.662-5.863.742-8.192 17.967-13.486 22.582-7.946 8.437-7.477 11.946 3.916 19.19-1.835 4.413-7.893 12.088-7.677 19.114-3.056 5.731-3.189 11.26-14.3 17.262-6.586 7.175-2.503 15.946-5.954 22.026-8.528 4.341 7.378 16.227-.607 11.372-9.546-2.591-6.406 8.941 2.969 5.935-5.166.296-9.4 6.213-39.026-5.44-35.51-8.485-1.938-6.553-18.36-7.103-10.162.035-5.973-6.18-2.243-11.521.052l-7.32.329-3.39 4.976"
                transform="matrix(.17093 -.15496 .15471 .17054 -23 48)" />
            <path fill="none" stroke="#000"
                d="M155.68 210.888c3.14-40.847 23.785-59.45 20.151-92.12-2.148-19.31-19.537-4.673-13.87 13.441"
                transform="matrix(.17093 -.15496 .15471 .17054 -23 48)" />
            <path fill="#fff" fill-rule="evenodd" stroke="#000"
                d="M56.554 161.937c-1.302-2.318-5.357-2.956-5.88-4.922.907-2.284-2.658-.628-3.361-1.883-4.194 3.434-9.984 4.92-13.093 9.643 1.653-.363 1.65-2.779-.157-.996-3.4 1.69-6.688 4.657-5.409 8.892.31 2.174-2.426 4.044.914 4.558-.436 3.48-5.655 3.333-5.658 6.404 1.155 3.35.647 6.84-2.101 9.19-2.718 2.541-1.599 6.283-1.5 9.37-1.367 2.066-2.136 3.986-.334 5.953.381 3.549 3.327 5.898 3.348 9.59 1.24 1.935 3.727 1.815 4.997 4.002 3.71.315 3.983 5.496 7.518 6.215 3.036.99 6.628.303 9.364 1.03 2.244 1.818 4.82 3.086 7.644 3.597 3.55 2.26 4.758-3.365 6.907-5.176.111-2.832 2.146-3.052 3.508-.667 3.101 2.102 6.314-1.519 8.537-3.434 2.174-2.37 4.612-4.42 7.032-6.497 3.436-3.88 4.656-9.43 4.464-14.536.34-3.199-2.634-3.376-4.59-3.741.884-2.683 3.113-6.542-1.433-6.829-2.607-.68-8.517-3.594-5.133-6.662 2.498-2.919-.94-6.848-2.473-9.484-2.656-2.114-4.2-5.06-5.851-7.63-3.198-.51-6.195-2.453-7.01-5.845-.853-2.695-.236-.7.033.612"
                transform="matrix(.17093 -.15496 .15471 .17054 -23 48)" />
            <path fill-opacity="0" fill-rule="evenodd"
                d="M33.689 56.596s-2.938-7.751-4.467-10.52c-1.43-2.592-4.45-5.789-5.752-5.706-1.304.083-1.353 2.028-.338 3.357 1.015 1.33 1.21 1.72 3.853 3.614 1.198.859 3.378 3.493 4.149 4.97.77 1.478 2.554 4.817 2.555 4.285z" />
        </g>
    </symbol>
    <symbol id="delivery_car2" viewBox="0 0 4 3">
        <path
            d="M4.419 1.561l-.16-.159-.052-.714A.322.322 0 0 0 3.889.37h-.344a.057.057 0 0 0-.053.053c0 .027.027.053.053.053h.344a.18.18 0 0 1 .186.185l.052.662h-.211l.08-.159c.026-.026 0-.08-.027-.08-.027-.026-.08 0-.08.027l-.105.212h-.318a.057.057 0 0 0-.053.053c0 .026.027.053.053.053h.714l.16.159a.28.28 0 0 1 .052.132v.053H4.34a.057.057 0 0 0-.053.053c0 .026.027.053.053.053h.053v.502H4.26a.428.428 0 0 0-.424-.37.418.418 0 0 0-.423.423c0 .238.185.424.423.424a.428.428 0 0 0 .424-.37h.185a.057.057 0 0 0 .053-.054v-.74c0 .079 0-.054-.08-.133zm-.609 1.27a.322.322 0 0 1-.318-.317c0-.16.133-.318.318-.318.159 0 .317.132.317.318a.341.341 0 0 1-.317.317zM.926 2.328a.18.18 0 0 0-.185.186c0 .105.08.185.185.185a.18.18 0 0 0 .185-.185.18.18 0 0 0-.185-.186zm0 .238a.057.057 0 0 1-.053-.052c0-.027.027-.053.053-.053.027 0 .053.026.053.053 0 .026 0 .052-.053.052zm0 0" />
        <path
            d="M3.81 2.328a.18.18 0 0 0-.185.186c0 .105.08.185.185.185a.18.18 0 0 0 .185-.185.18.18 0 0 0-.185-.186zm0 .238a.057.057 0 0 1-.053-.052c0-.027.027-.053.053-.053s.053.026.053.053a.057.057 0 0 1-.053.052zM3.201 0H.317A.322.322 0 0 0 0 .318v1.957c0 .186.132.318.317.318A.057.057 0 0 0 .37 2.54a.057.057 0 0 0-.053-.053.18.18 0 0 1-.185-.185V.344A.18.18 0 0 1 .317.159H3.15v1.72H.317a.057.057 0 0 0-.052.052c0 .027.026.053.052.053H3.15v.503h-1.8a.428.428 0 0 0-.423-.37.418.418 0 0 0-.423.423c0 .238.185.423.423.423a.428.428 0 0 0 .423-.37h1.852a.057.057 0 0 0 .053-.053V.08c0-.054-.026-.08-.053-.08zM.926 2.831a.322.322 0 0 1-.317-.317c0-.16.132-.318.317-.318.159 0 .318.132.318.318a.322.322 0 0 1-.318.317zm0 0" />
        <path fill="#00c251"
            d="M3.572.609a.18.18 0 0 1-.185-.186.18.18 0 0 1 .185-.185.18.18 0 0 1 .185.185.18.18 0 0 1-.185.186z" />
    </symbol>
    <symbol id="delivery_car" viewBox="0 0 12 10">
        <path
            d="M11.77 5.07l-.55-.55L11 2.21a1 1 0 0 0-1-1H8.92a.2.2 0 1 0 0 .4H10a.61.61 0 0 1 .6.62l.19 2.19h-.66l.25-.51a.2.2 0 1 0-.38-.19l-.34.69H8.62a.2.2 0 0 0 0 .4h2.32l.54.54a.78.78 0 0 1 .15.46V6h-.2a.2.2 0 1 0 0 .4h.2V8h-.42a1.4 1.4 0 1 0 0 .4h.62a.2.2 0 0 0 .2-.2V5.81a1.16 1.16 0 0 0-.26-.74zM9.82 9.22a1 1 0 1 1 1-1 1 1 0 0 1-1 1zM3 7.62a.6.6 0 1 0 .6.6.6.6 0 0 0-.6-.6zm0 .8a.2.2 0 1 1 .2-.2.2.2 0 0 1-.2.2z" />
        <path
            d="M9.82 7.62a.6.6 0 1 0 .6.6.6.6 0 0 0-.6-.6zm0 .8a.2.2 0 1 1 .2-.2.2.2 0 0 1-.2.2zM7.82 0H1a1 1 0 0 0-1 1v6.42a1 1 0 0 0 1 1A.2.2 0 1 0 1 8a.6.6 0 0 1-.6-.6V1A.6.6 0 0 1 1 .4h6.62V6H1a.2.2 0 0 0 0 .4h6.62V8H4.39a1.4 1.4 0 0 0-2.79.2A1.41 1.41 0 0 0 3 9.62a1.39 1.39 0 0 0 1.38-1.2h3.44a.2.2 0 0 0 .2-.2V.2a.2.2 0 0 0-.2-.2zM3 9.22a1 1 0 1 1 1-1 1 1 0 0 1-1 1z" />
        <path fill="#00c251" d="M9 1.78a.41.41 0 1 1 .41-.41.4.4 0 0 1-.41.41z" />
    </symbol>
    <symbol id="blog_book" viewBox="0 0 7 5">
        <path
            d="M3.254 4.63c-.026 0-.026 0-.053-.026 0 0-.82-.53-1.534-.53-.741 0-1.508.345-1.508.345-.027.026-.08 0-.106 0C.026 4.392 0 4.366 0 4.339V.503C0 .45.026.423.053.397.079.37.82.053 1.693.053c.9 0 1.588.53 1.614.556.027.026.053.052.053.079v3.836c0 .027-.026.08-.053.08-.026.026-.026.026-.053.026zm-1.587-.74c.582 0 1.19.29 1.482.45V.74C2.989.636 2.408.266 1.693.266A3.99 3.99 0 0 0 .212.582v3.625c.264-.132.873-.318 1.455-.318z"
            class="st22" />
        <path
            d="M6.482 1.535a.114.114 0 0 1-.106-.106V.556A3.99 3.99 0 0 0 4.895.238c-.82 0-1.482.503-1.482.503-.053.026-.106.026-.159-.027-.026-.053-.026-.105.027-.158C3.307.529 4.02 0 4.895 0c.873 0 1.614.344 1.64.344.027.026.053.053.053.106v.979a.114.114 0 0 1-.106.106zM3.334 4.63c-.027 0-.08-.026-.08-.053-.026-.053-.026-.106.027-.132.026-.026.873-.556 1.64-.556.582 0 1.19.186 1.455.291V2.302c0-.053.053-.106.106-.106s.106.053.106.106v2.037c0 .027-.026.08-.053.08a.08.08 0 0 1-.106 0s-.793-.344-1.508-.344c-.714 0-1.534.502-1.534.529-.027.026-.053.026-.053.026zM2.46 1.35H.768a.114.114 0 0 1-.106-.106c0-.053.053-.106.106-.106h1.694c.053 0 .105.053.105.106a.114.114 0 0 1-.105.105zm0 .925H.768a.114.114 0 0 1-.106-.105c0-.053.053-.106.106-.106h1.694c.053 0 .105.053.105.106a.114.114 0 0 1-.105.105zm0 .926H.768a.114.114 0 0 1-.106-.105c0-.053.053-.106.106-.106h1.694c.053 0 .105.053.105.106a.114.114 0 0 1-.105.105z"
            class="st22" />
        <path
            d="M5.636 1.35H3.942a.114.114 0 0 1-.106-.106c0-.053.053-.106.106-.106h1.694c.053 0 .105.053.105.106 0 .052-.026.105-.105.105zm0 .925H3.942a.114.114 0 0 1-.106-.105c0-.053.053-.106.106-.106h1.694c.053 0 .105.053.105.106 0 .052-.026.105-.105.105zm0 .926H3.942a.114.114 0 0 1-.106-.105c0-.053.053-.106.106-.106h1.694c.053 0 .105.053.105.106s-.026.105-.105.105z"
            class="st22" />
        <path fill="#00c251"
            d="M6.482 1.773a.322.322 0 0 1-.317-.318c0-.185.159-.317.317-.317.185 0 .318.158.318.317a.341.341 0 0 1-.318.318z" />
    </symbol>
    <symbol id="icon_basket_black" viewBox="0 0 26 23">
        <path
            d="M9.62 17.73L7.85 8.21a.31.31 0 0 1 .31-.37h14.46a.31.31 0 0 1 .31.37l-1.77 9.52a.31.31 0 0 1-.31.25H9.92a.31.31 0 0 1-.3-.25zm12.63-9.26H8.53l1.65 8.9h10.41z"
            class="cls-1" />
        <path
            d="M9.76 10.76h12.37a.31.31 0 0 0 0-.62H9.76a.31.31 0 0 0 0 .62zm-.45 3.49h10.94a.31.31 0 1 0 0-.62H9.31a.31.31 0 0 0 0 .62z"
            class="cls-1" />
        <path
            d="M15.39 17.87a.31.31 0 0 0 .31-.31v-6.92a.31.31 0 0 0-.62 0v6.91a.31.31 0 0 0 .31.32zm2.86 0a.31.31 0 0 0 .31-.28l.69-6.91a.31.31 0 0 0-.28-.34.31.31 0 0 0-.34.28l-.69 6.91a.31.31 0 0 0 .28.34zm-5.73 0a.31.31 0 0 0 .28-.34l-.69-6.91a.32.32 0 0 0-.34-.28.31.31 0 0 0-.28.34l.69 6.91a.31.31 0 0 0 .34.28z"
            class="cls-1" />
        <path
            d="M17.8 19.38a1.78 1.78 0 1 1 1.78 1.78 1.78 1.78 0 0 1-1.78-1.78zm.62 0a1.16 1.16 0 1 0 1.16-1.16 1.16 1.16 0 0 0-1.15 1.16zm-9.01 0a1.78 1.78 0 1 1 1.78 1.78 1.78 1.78 0 0 1-1.78-1.78zm.62 0a1.16 1.16 0 1 0 1.16-1.16A1.16 1.16 0 0 0 10 19.38zM8.15 8.47h.11A.31.31 0 0 0 8.45 8L6.78 3.53a.31.31 0 0 0-.29-.2H2.82a.31.31 0 0 0 0 .62h3.46l1.58 4.31a.31.31 0 0 0 .29.21z"
            class="cls-1" />
        <circle cx="3" cy="3" r="1" class="cls-2" />
    </symbol>
    <symbol id="icon_star_black" viewBox="0 0 26 23">
        <path
            d="M17.34 19.69a.26.26 0 0 1-.15 0l-4.77-3.42-4.76 3.37a.26.26 0 0 1-.41-.27l1.32-5.91-4.26-3.17a.26.26 0 0 1 .14-.47L10 9.38l2.14-6a.27.27 0 0 1 .49 0L14.5 8.5a.26.26 0 1 1-.49.18l-1.59-4.42-2 5.46a.26.26 0 0 1-.23.17l-5.06.39L9 13.14a.26.26 0 0 1 .1.27l-1.19 5.41 4.36-3.13a.26.26 0 0 1 .31 0l4.36 3.13-1.21-5.41a.26.26 0 0 1 .1-.27l3.83-2.86-4-.31a.26.26 0 0 1 0-.52l4.66.36a.26.26 0 0 1 .14.47l-4.26 3.17 1.32 5.91a.26.26 0 0 1-.26.32z"
            class="cls-1" />
        <circle cx="14" cy="9" r="1" class="cls-2" />
    </symbol>
    <symbol id="icon_user" viewBox="0 0 8 10">
        <path fill="#141414"
            d="M8.1 10H.16A.16.16 0 0 1 0 9.85v-.16c0-.85 0-2.44.74-3.09a5.09 5.09 0 0 1 1.84-.89L3 5.57a.88.88 0 0 0 .15-.41 2.7 2.7 0 0 1-1.51-2.48A2.62 2.62 0 0 1 4.13 0a2.62 2.62 0 0 1 2.49 2.68 2.7 2.7 0 0 1-1.51 2.48.78.78 0 0 0 .15.41l.42.14c.24.07.53.17.83.29a.15.15 0 0 1 .08.21.14.14 0 0 1-.2.08L5.58 6a4.67 4.67 0 0 1-.45-.15c-.27-.13-.34-.63-.35-.79a.15.15 0 0 1 .1-.16A2.36 2.36 0 0 0 6.3 2.68 2.3 2.3 0 0 0 4.13.32 2.31 2.31 0 0 0 2 2.68a2.35 2.35 0 0 0 1.39 2.23.18.18 0 0 1 .1.16c0 .16-.09.66-.35.79S2.87 6 2.68 6A5.07 5.07 0 0 0 1 6.84C.31 7.39.32 8.89.32 9.69H8c0-.8 0-2.3-.64-2.85a.17.17 0 0 1 0-.23.16.16 0 0 1 .22 0c.76.65.75 2.24.74 3.09v.16a.16.16 0 0 1-.22.14z" />
        <path fill="#00c251"
            d="M6.46 6.66a.5.5 0 0 1-.5-.5.5.5 0 0 1 .5-.5.51.51 0 0 1 .5.5.5.5 0 0 1-.5.5z" />
    </symbol>
    <symbol id="icon_profit" viewBox="0 0 8 6">
        <path
            d="M7.555.92v.51H.251V.613C.25.51.322.443.43.409V.374h6.839V.136H.465C.215.136 0 .34 0 .58v4.527c0 .239.215.443.465.443h6.911c.108 0 .25-.034.322-.136.072-.068.108-.205.108-.307V.92zm0 4.22c0 .102-.107.205-.215.205H.43c-.108 0-.215-.103-.215-.205V2.451h7.304v2.69zm0-2.927H.251v-.51h7.304z"
            class="st12" />
        <path fill="#00c251"
            d="M7.305.613a.313.313 0 0 1-.323-.307c0-.17.144-.306.323-.306.179 0 .322.136.322.306 0 .17-.143.307-.322.307z"
            class="st1" />
    </symbol>
    <symbol id="icon_zwroty" viewBox="0 0 5 4">
        <path
            d="M2.805 3.936c-.027 0-.027 0-.053-.027L.026 2.057C0 2.031 0 2.031 0 2.004c0-.026 0-.053.026-.053L2.752.02c.026-.027.053-.027.079 0 .026.026.053.053.053.08l-.027 1.005h2.064c.053 0 .08.026.08.079v.582c0 .053-.027.08-.08.08-.053 0-.08-.027-.08-.08v-.503H2.779c-.026 0-.053 0-.053-.026C2.7 1.21 2.7 1.21 2.7 1.184l.026-.926L.238 2.031l2.487 1.693-.026-.952c0-.027 0-.053.026-.053.027-.027.027-.027.053-.027h2.064v-.397c0-.053.026-.08.08-.08.052 0 .079.027.079.08v.477c0 .052-.027.079-.08.079H2.857l.027 1.005c0 .027-.027.053-.053.08h-.026z"
            class="st8" />
        <path
            d="M4.419 2.348H2.83c-.053 0-.08-.026-.08-.08 0-.052.027-.079.08-.079h1.588c.052 0 .079.027.079.08 0 .053-.027.08-.08.08z"
            class="st8" />
        <path fill="#00c251"
            d="M4.948 2.03a.237.237 0 0 1-.238-.237.238.238 0 1 1 .476 0 .237.237 0 0 1-.238.238z"
            class="st1" />
    </symbol>
    <symbol id="icon_reklamacje" viewBox="0 0 5 4">
        <path
            d="M3.784 4.127c-.027 0-.053-.026-.08-.052l-.423-1.006H.079C.026 3.07 0 3.043 0 2.99V.08C0 .026.026 0 .08 0h4.735c.053 0 .08.026.08.08v.634c0 .053-.027.08-.08.08-.053 0-.079-.027-.079-.08V.16H.132v2.75h3.175c.027 0 .053.027.08.053l.37.873.37-.873c0-.026.027-.053.08-.053h.555V1.323c0-.053.027-.08.08-.08.053 0 .08.027.08.08V2.99c0 .053-.027.08-.08.08H4.26l-.424 1.005c.027.026-.026.052-.052.052z"
            class="st35" />
        <path
            d="M4.207 1.005H.847c-.053 0-.08-.026-.08-.079 0-.053.027-.08.08-.08h3.36c.053 0 .08.027.08.08 0 .053-.027.08-.08.08zm0 .582H.847c-.053 0-.08-.026-.08-.079 0-.053.027-.08.08-.08h3.36c.053 0 .08.027.08.08 0 .053-.027.08-.08.08zm0 .609H.847c-.053 0-.08-.026-.08-.08 0-.052.027-.079.08-.079h3.36c.053 0 .08.027.08.08 0 .026-.027.079-.08.079z"
            class="st7" />
        <path fill="#00c251"
            d="M4.842.952a.237.237 0 0 1-.238-.238c0-.132.106-.238.238-.238s.238.106.238.238a.237.237 0 0 1-.238.238z"
            class="st1" />
    </symbol>
    <symbol id="icon_pig" viewBox="0 0 4 5">
        <path fill="none" stroke="#141414" stroke-miterlimit="10" stroke-width="0"
            d="M91.106 73.653a.847.847 0 0 1-.846.847.847.847 0 0 1-.847-.847.847.847 0 0 1 .847-.847.847.847 0 0 1 .846.847z"
            transform="translate(-89 -73)" />
        <path
            d="M90.657 74.103h-.52v-.098h.2v-.645h-.2v-.087q.04 0 .086-.007.047-.007.07-.02.03-.016.047-.04.018-.026.02-.068h.1v.867h.197z"
            transform="translate(-89 -73)" />
        <path
            d="M92.8 75.955a.24.24 0 0 0-.186-.08h-.079v-.026a1.917 1.917 0 0 0-.476-.662.545.545 0 0 1 .08-.396.226.226 0 0 0 0-.186c-.027-.053-.107-.105-.16-.105h-.026a.946.946 0 0 0-.582.29l-.027.027h-.026a.951.951 0 0 0-.291-.053v.132a.7.7 0 0 1 .317.08h.027c.026 0 .053 0 .053-.027a.738.738 0 0 1 .476-.29h.132l-.026.052-.027.027-.026.026a.607.607 0 0 0-.053.476c0 .027 0 .027.026.053.239.186.397.424.477.688 0 .027.026.053.08.053h.131c.053 0 .133.053.133.132v.503c-.027.053-.053.08-.106.08h-.132c-.027 0-.053.026-.08.052-.08.239-.238.477-.45.662l-.026.026a.69.69 0 0 0-.238.477v.185h-.688v-.212c0-.026 0-.026-.027-.053 0 0-.026-.026-.052-.026h-.212c-.08 0-.185 0-.265-.027-.026 0-.026 0-.053.027-.026.026-.026.026-.026.053v.185h-.688v-.08a.83.83 0 0 0-.265-.608 1.469 1.469 0 0 1-.29-.45 1.29 1.29 0 0 1-.106-.29c-.027-.107-.027-.213-.027-.318 0-.768.688-1.43 1.535-1.508v-.133c-.424.027-.82.212-1.138.476-.344.318-.556.715-.556 1.165 0 .105.027.238.053.344.027.105.08.211.133.317.079.185.185.344.317.476a.75.75 0 0 1 .212.503v.08c0 .079.08.158.158.158h.635c.106 0 .16-.08.16-.159v-.079h.37v.08c0 .105.079.158.158.158h.635c.106 0 .16-.08.16-.159v-.132c0-.026.026-.212.21-.397l.027-.026c.212-.185.344-.397.45-.635v-.027h.08a.265.265 0 0 0 .264-.264v-.476c0-.053-.026-.133-.08-.16z"
            class="st30" transform="translate(-89 -73)" />
        <path fill="#00c251"
            d="M90.66 75.017a.237.237 0 0 1-.238-.238c0-.132.106-.238.238-.238s.238.106.238.238a.237.237 0 0 1-.238.238z"
            class="st1" transform="translate(-89 -73)" />
    </symbol>
    <symbol id="icon_portfel" viewBox="0 0 4 4">
        <path
            d="M3.704 1.826V.953a.362.362 0 0 0-.37-.37h-.265L2.805.105c-.027-.027-.053 0-.08 0l-.08.08.45.766h-1.93L2.301.317l-.08-.132-.714.397H.37a.362.362 0 0 0-.37.37v2.593c0 .212.159.37.37.37h2.964c.211 0 .37-.158.37-.37v-.767h.185V1.8h-.185zM3.307.74a.21.21 0 0 1 .212.212h-.291L3.122.74zm.238 2.804a.237.237 0 0 1-.238.239H.37a.237.237 0 0 1-.238-.239V.953C.132.82.238.714.37.714h.847l-.37.212h-.45c-.053 0-.08.027-.08.08 0 .052.027.079.08.079h3.148v.74H2.99a.474.474 0 0 0-.476.477v.026c0 .265.211.477.476.477h.555zm.186-.9H2.99a.306.306 0 0 1-.318-.317v-.026c0-.185.133-.318.318-.318h.74z"
            class="st12" />
        <path
            d="M2.884 2.328c0 .08.08.16.159.16a.17.17 0 0 0 .158-.16.17.17 0 0 0-.158-.158c-.08-.027-.16.053-.16.158z"
            class="st7" />
        <path fill="#00c251"
            d="M2.196.476a.237.237 0 0 1-.238-.238c0-.132.106-.238.238-.238s.238.106.238.238a.237.237 0 0 1-.238.238z"
            class="st1" />
    </symbol>
    <symbol id="icon_kalendarz" viewBox="0 0 4 4">
        <path
            d="M4.022 1.693a.057.057 0 0 1-.053-.053V.53h-.556A.057.057 0 0 1 3.36.475c0-.026.027-.053.053-.053h.609c.026 0 .053.027.053.053v1.19s-.027.027-.053.027zM3.201.503H.873A.057.057 0 0 1 .82.45C.82.423.847.397.873.397h2.328c.027 0 .053.026.053.053a.057.057 0 0 1-.053.053z"
            class="st8" />
        <path
            d="M4.022 3.598H.052A.057.057 0 0 1 0 3.545V.45C0 .423.026.397.053.397h.635C.714.397.74.423.74.45a.057.057 0 0 1-.053.053H.106v2.963h3.863V2.143c0-.026.026-.053.053-.053.026 0 .053.027.053.053v1.402a.057.057 0 0 1-.053.053z"
            class="st8" />
        <path
            d="M3.651 1.217H.08a.057.057 0 0 1-.053-.053c0-.026.027-.053.053-.053h3.572c.027 0 .053.027.053.053a.057.057 0 0 1-.053.053zM.688.503A.057.057 0 0 1 .635.45V.053C.635.026.661 0 .688 0h.185C.9 0 .926.026.926.053v.212a.057.057 0 0 1-.053.053A.057.057 0 0 1 .82.265v-.16H.74V.45a.057.057 0 0 1-.052.053zm2.513 0A.057.057 0 0 1 3.15.45V.053C3.149.026 3.175 0 3.2 0h.186c.026 0 .053.026.053.053v.212a.057.057 0 0 1-.053.053.057.057 0 0 1-.053-.053v-.16h-.08V.45A.057.057 0 0 1 3.2.503zm.186.45H3.2A.057.057 0 0 1 3.15.9V.66c0-.026.026-.052.052-.052.027 0 .053.026.053.052v.16h.08V.45c0-.027.026-.053.053-.053.026 0 .053.026.053.053v.423c.026.053 0 .08-.053.08zm-2.514 0H.688A.057.057 0 0 1 .635.9V.66c0-.025.026-.05.053-.05C.714.609.74.635.74.66v.16h.08V.45C.82.423.846.397.872.397.9.397.926.423.926.45v.423c.027.053 0 .08-.053.08z"
            class="st8" />
        <path
            d="M2.672 1.64h-.37a.057.057 0 0 1-.053-.053c0-.026.026-.052.053-.052h.37c.027 0 .053.026.053.052a.057.057 0 0 1-.053.053zm.873 0h-.37a.057.057 0 0 1-.053-.053c0-.026.027-.052.053-.052h.37c.027 0 .053.026.053.052.027.027-.026.053-.053.053zm-2.619.503H.529a.057.057 0 0 1-.053-.053c0-.026.027-.053.053-.053H.9c.027 0 .054.027.054.053.026.027 0 .053-.027.053zm.874 0h-.371a.057.057 0 0 1-.053-.053c0-.026.026-.053.053-.053h.37c.027 0 .053.027.053.053a.057.057 0 0 1-.053.053zm.872 0h-.37a.057.057 0 0 1-.053-.053c0-.026.026-.053.053-.053h.37c.027 0 .053.027.053.053a.057.057 0 0 1-.053.053zm.873 0h-.37a.057.057 0 0 1-.053-.053c0-.026.027-.053.053-.053h.37c.027 0 .053.027.053.053.027.027-.026.053-.053.053zM.926 2.62H.529a.057.057 0 0 1-.053-.054c0-.026.027-.052.053-.052H.9c.027 0 .054.026.054.052.026.027 0 .053-.027.053zm.874 0h-.371a.057.057 0 0 1-.053-.054c0-.026.026-.052.053-.052h.37c.027 0 .053.026.053.052a.057.057 0 0 1-.053.053zm.872 0h-.37a.057.057 0 0 1-.053-.054c0-.026.026-.052.053-.052h.37c.027 0 .053.026.053.052a.057.057 0 0 1-.053.053zm.873 0h-.37a.057.057 0 0 1-.053-.054c0-.026.027-.052.053-.052h.37c.027 0 .053.026.053.052.027.027-.026.053-.053.053zm-2.619.476H.529a.057.057 0 0 1-.053-.053c0-.027.027-.053.053-.053H.9c.027 0 .054.026.054.053.026.026 0 .053-.027.053zm.874 0h-.371a.057.057 0 0 1-.053-.053c0-.027.026-.053.053-.053h.37c.027 0 .053.026.053.053a.057.057 0 0 1-.053.053z"
            class="st7" />
        <path fill="#00c251"
            d="M3.995 1.826a.18.18 0 0 1-.185-.186.18.18 0 0 1 .185-.185.18.18 0 0 1 .185.185c.027.106-.053.186-.185.186z"
            class="st1" />
    </symbol>
    <symbol id="icon_hands" viewBox="0 0 5 4">
        <path
            d="M4.63 2.143c-.026 0-.053-.026-.053-.026L3.995.45l-.08.026c-.052.027-.105.027-.158.027-.08 0-.159-.027-.238-.053l-.08-.027A.382.382 0 0 0 3.255.37c-.053 0-.079 0-.132.027L1.8.847V.9c.027.052.053.132.106.185.026.026.08.026.132.026.053 0 .106 0 .159-.026L2.778.9h.053l.026.026c.027.053.106.318.37.476.08.053.186.08.292.08.106 0 .212-.027.344-.053.026 0 .053.026.053.026 0 .027 0 .053-.027.08a1.054 1.054 0 0 1-.37.079.733.733 0 0 1-.344-.08.75.75 0 0 1-.37-.45l-.027-.052-.53.185c-.079.027-.132.027-.184.027-.08 0-.133-.027-.186-.053A.488.488 0 0 1 1.72.847c0-.027.026-.053.026-.053L3.122.317c.053-.026.106-.026.159-.026.08 0 .158.026.238.053l.08.026a.382.382 0 0 0 .184.053c.053 0 .08 0 .133-.026l.132-.053.714-.238c.027 0 .053.026.053.026l.582 1.72v.053l-.026.026zM4.71.212L4.1.423l.556 1.614.608-.211z"
            class="st12" />
        <path
            d="M3.016 3.572l-1.27-.635c-.29-.132-.529-.318-.767-.53l-.291-.264-.662-.317C0 1.826 0 1.799 0 1.799v-.053L.794.106C.794.079.82.079.82.079h.053l.662.318c.026.026.026.053.026.08L.767 2.063l.265.238c.212.212.476.37.74.503l1.27.635c.027 0 .054.026.08.026a.146.146 0 0 0 .132-.08c.027-.026.027-.079 0-.132a.207.207 0 0 0-.105-.105l-.688-.344c-.027 0-.027-.027-.027-.027v-.053c0-.026.027-.026.053-.026h.027l1.058.502c.026 0 .053.027.08.027a.146.146 0 0 0 .132-.08c.026-.026.026-.079 0-.132-.027-.053-.053-.08-.08-.08l-1.032-.502c-.026 0-.026-.026-.026-.026v-.053c0-.027.026-.027.053-.027h.026l1.164.556c.027 0 .053.026.08.026h.053c.053-.026.08-.053.08-.079.026-.026.026-.08 0-.132a.365.365 0 0 0-.08-.106L2.99 2.09c-.027-.026-.027-.053-.027-.08 0-.026.027-.026.053-.026h.027l.926.45c.026 0 .053.027.08.027a.146.146 0 0 0 .131-.08c.027-.026.027-.08 0-.132-.026-.053-.052-.08-.079-.08l-.476-.238c-.027 0-.027-.052-.027-.079 0-.026.027-.026.053-.026h.027l.476.238a.27.27 0 0 1 .132.159.293.293 0 0 1 0 .211c-.026.027-.053.08-.08.106l-.026.026.027.027c.053.08.08.185.026.291a.271.271 0 0 1-.158.132c-.027 0-.053.027-.08.027h-.053v.053c0 .053 0 .079-.026.132-.053.08-.132.159-.238.159-.053 0-.08 0-.106-.027l-.132-.053v.08c0 .026 0 .053-.027.106-.053.079-.132.158-.238.158-.08-.053-.132-.053-.159-.08zM.846.212l-.74 1.534.582.291.74-1.534z"
            class="st12" />
        <path fill="#00c251"
            d="M4.736.423a.209.209 0 0 0 .212-.211A.209.209 0 0 0 4.736 0a.209.209 0 0 0-.212.212c-.026.105.08.211.212.211z"
            class="st1" />
    </symbol>
    <symbol id="icon_headphones" viewBox="0 0 5 5">
        <path
            d="M.452 3.466a.438.438 0 0 1-.45-.476v-.476c0-.265.212-.45.476-.45h.133c.053 0 .08.053.08.08 0 .052-.054.078-.08.078H.478a.294.294 0 0 0-.29.292v.476c0 .159.132.29.29.317a.294.294 0 0 0 .292-.29v-.742c0-.053.026-.079.079-.079.053 0 .08.027.08.08v.74c0 .238-.212.45-.477.45zm4.26 0a.446.446 0 0 1-.45-.45v-.741c0-.053.027-.079.08-.079.052 0 .079.027.079.08v.74c0 .159.132.291.29.291.16 0 .292-.132.292-.317v-.476a.294.294 0 0 0-.291-.292H4.58c-.053 0-.08-.026-.08-.079 0-.053.027-.08.08-.08h.158c.265 0 .45.212.45.45v.503c0 .238-.212.45-.476.45z"
            class="st22" />
        <path
            d="M4.341 2.355c-.052 0-.079-.027-.079-.08A1.66 1.66 0 0 0 2.595.61C1.669.61.928 1.35.928 2.25c0 .053-.026.08-.08.08-.052 0-.079-.027-.079-.08 0-1.005.82-1.8 1.826-1.8a1.83 1.83 0 0 1 1.826 1.826c0 .053-.053.08-.08.08z"
            class="st22" />
        <path
            d="M.61 2.196c-.052 0-.079-.026-.079-.08C.531.874 1.405 0 2.621 0c.53 0 .98.159 1.324.476a.08.08 0 0 1 0 .106.08.08 0 0 1-.106 0C3.52.291 3.098.16 2.622.16 1.484.159.69.979.69 2.117c0 .026-.026.079-.08.079zM3.336 4.34c-.027 0-.053 0-.053-.027a.08.08 0 0 1 0-.106L4.341 3.2a.08.08 0 0 1 .106 0 .08.08 0 0 1 0 .106L3.39 4.313c-.027.026-.053.026-.053.026z"
            class="st22" />
        <path
            d="M3.098 4.683h-.291a.306.306 0 0 1-.318-.317.3.3 0 0 1 .08-.212.3.3 0 0 1 .211-.08h.291c.186 0 .318.133.318.318.026.159-.106.291-.291.291zm-.291-.476c-.053 0-.08.026-.106.053a.2.2 0 0 0-.053.106c0 .079.08.158.159.158h.29a.17.17 0 0 0 .16-.158.17.17 0 0 0-.16-.16z"
            class="st22" />
        <path fill="#00c251"
            d="M3.918.767a.265.265 0 0 1-.265-.264c0-.159.106-.265.265-.265.132 0 .265.106.265.265 0 .158-.106.264-.265.264z"
            class="st1" />
    </symbol>
    <symbol id="icon_basket2" viewBox="0 0 11 9">
        <g data-name="Warstwa 2">
            <path
                d="M9.39 9.19H1.45a.16.16 0 0 1-.16-.14L0 2.14A.18.18 0 0 1 0 2a.16.16 0 0 1 .13-.06h10.55a.18.18 0 0 1 .13.06.17.17 0 0 1 0 .14l-.42 2.28a.17.17 0 0 1-.19.14.19.19 0 0 1-.14-.2l.39-2.09H.37l1.22 6.59h7.67l.56-3.06a.17.17 0 0 1 .2-.13.16.16 0 0 1 .13.19l-.59 3.19a.18.18 0 0 1-.17.14z"
                class="cls-1" />
            <path
                d="M9.52 3.94h-9a.17.17 0 0 1 0-.34h9a.17.17 0 0 1 0 .34zm.29 2.53H1.72a.17.17 0 0 1-.17-.16.17.17 0 0 1 .17-.17h8.09a.17.17 0 0 1 .17.17.17.17 0 0 1-.17.16z"
                class="cls-1" />
            <path
                d="M5.42 9.1a.16.16 0 0 1-.16-.17v-5a.16.16 0 0 1 .16-.16.17.17 0 0 1 .17.16v5a.17.17 0 0 1-.17.17zm-2.08 0a.16.16 0 0 1-.16-.1l-.51-5a.17.17 0 0 1 .15-.18.16.16 0 0 1 .18.08l.51 5a.17.17 0 0 1-.15.18zm4.16 0a.17.17 0 0 1-.15-.18l.5-5A.17.17 0 0 1 8 3.75a.16.16 0 0 1 .15.18l-.5 5a.16.16 0 0 1-.15.17zM3.35 3.14A.18.18 0 0 1 3.19 3L2.08.23a.16.16 0 1 1 .3-.13L3.5 2.91a.17.17 0 0 1-.09.22zm4.15 0h-.07a.18.18 0 0 1-.09-.22L8.46.1a.17.17 0 0 1 .22-.1.18.18 0 0 1 .09.22L7.65 3a.16.16 0 0 1-.15.14z"
                class="cls-1" />
            <path fill="#00c251" d="M10.2 5.08a.52.52 0 0 1 0-1 .52.52 0 1 1 0 1z" />
        </g>
    </symbol>
    <symbol id="icon_wishlist2" viewBox="0 0 10 10">
        <g data-name="Warstwa 2">
            <path
                d="M4.83 9.72a.17.17 0 0 1-.13-.07c-.16-.2-3.79-5-4.08-5.46A3.51 3.51 0 0 1 0 2.49 2.5 2.5 0 0 1 2.49 0a2.7 2.7 0 0 1 2.34 1.72A2.68 2.68 0 0 1 7.16 0 2.48 2.48 0 0 1 8.8.62a.16.16 0 1 1-.21.24A2.23 2.23 0 0 0 7.16.32 2.44 2.44 0 0 0 5 2.3c0 .15-.28.15-.31 0a2.44 2.44 0 0 0-2.18-2A2.18 2.18 0 0 0 .32 2.49 3.24 3.24 0 0 0 .89 4c.26.39 3.27 4.39 3.94 5.27C5.49 8.4 8.5 4.4 8.76 4a3.2 3.2 0 0 0 .57-1.52.16.16 0 0 1 .32 0A3.48 3.48 0 0 1 9 4.19c-.26.44-3.89 5.26-4 5.46a.19.19 0 0 1-.17.07z"
                class="cls-1" />
            <path
                d="M1.38 2.79a.18.18 0 0 1-.16-.14 1.28 1.28 0 0 1 .37-1 1.36 1.36 0 0 1 1.47-.32.16.16 0 0 1-.13.29 1.05 1.05 0 0 0-1.11.26 1 1 0 0 0-.28.77.16.16 0 0 1-.13.19z"
                class="cls-1" />
            <path fill="#00c251" d="M8.75 1.31A.56.56 0 1 1 9.3.75a.56.56 0 0 1-.55.56z" />
        </g>
    </symbol>
    <symbol id="social_icon_googleplus" viewBox="0 0 512 512">
        <path
            d="M448 224v-64h-32v64h-64v32h64v64h32v-64h64v-32zm-288 0v64h90.528c-13.216 37.248-48.8 64-90.528 64-52.928 0-96-43.072-96-96s43.072-96 96-96c22.944 0 45.024 8.224 62.176 23.168l42.048-48.256C235.424 109.824 198.432 96 160 96 71.776 96 0 167.776 0 256s71.776 160 160 160 160-71.776 160-160v-32H160z" />
    </symbol>
    <symbol id="social_icon_facebook" viewBox="0 0 95 95">
        <path
            d="M90 15.001C90 7.119 82.884 0 75 0H15C7.116 0 0 7.119 0 15.001v59.998C0 82.881 7.116 90 15.001 90H45V56H34V41h11v-5.844C45 25.077 52.568 16 61.875 16H74v15H61.875C60.548 31 59 32.611 59 35.024V41h15v15H59v34h16c7.884 0 15-7.119 15-15.001V15.001z" />
    </symbol>
    <symbol id="social_icon_instagram" viewBox="0 0 512 512">
        <path
            d="M373.659 0H138.341C62.06 0 0 62.06 0 138.341v235.318C0 449.94 62.06 512 138.341 512h235.318C449.94 512 512 449.94 512 373.659V138.341C512 62.06 449.94 0 373.659 0zm96.977 373.659c0 53.473-43.503 96.977-96.977 96.977H138.341c-53.473 0-96.977-43.503-96.977-96.977V138.341c0-53.473 43.503-96.977 96.977-96.977h235.318c53.473 0 96.977 43.503 96.977 96.977v235.318z" />
        <path
            d="M370.586 238.141c-3.64-24.547-14.839-46.795-32.386-64.342-17.547-17.546-39.795-28.746-64.341-32.385a114.73 114.73 0 0 0-33.682 0c-30.336 4.499-57.103 20.541-75.372 45.172-18.269 24.631-25.854 54.903-21.355 85.237 4.499 30.335 20.541 57.102 45.172 75.372 19.996 14.831 43.706 22.619 68.153 22.619 5.667 0 11.375-.418 17.083-1.265 30.336-4.499 57.103-20.541 75.372-45.172 18.27-24.63 25.855-54.901 21.356-85.236zm-102.795 89.491c-19.405 2.882-38.77-1.973-54.527-13.66-15.757-11.687-26.019-28.811-28.896-48.216-2.878-19.405 1.973-38.77 13.66-54.527 11.688-15.757 28.811-26.019 48.217-28.897a73.42 73.42 0 0 1 21.545.001c32.231 4.779 57.098 29.645 61.878 61.877 5.94 40.058-21.817 77.482-61.877 83.422zm132.258-215.681a20.83 20.83 0 0 0-14.625-6.058 20.826 20.826 0 0 0-14.625 6.058 20.814 20.814 0 0 0-6.058 14.625 20.814 20.814 0 0 0 6.058 14.625 20.83 20.83 0 0 0 14.625 6.058 20.826 20.826 0 0 0 14.625-6.058 20.83 20.83 0 0 0 6.058-14.625 20.826 20.826 0 0 0-6.058-14.625z" />
    </symbol>
    <symbol id="social_icon_youtube" viewBox="0 0 65 65">
        <path
            d="M37.635 41.44c-.542 0-1.088.257-1.635.79v10.999c.547.544 1.093.806 1.635.806.941 0 1.423-.806 1.423-2.434v-7.698c.001-1.632-.482-2.463-1.423-2.463zm11.966 0c-1.093 0-1.642.831-1.642 2.502v1.671h3.274v-1.671c.001-1.671-.546-2.502-1.632-2.502z" />
        <path
            d="M56.396 29.049c-2.055-2.139-4.357-2.148-5.414-2.271-7.556-.54-18.889-.54-18.889-.54h-.025s-11.333 0-18.896.54c-1.054.123-3.352.133-5.409 2.271-1.618 1.632-2.147 5.327-2.147 5.327s-.536 4.343-.536 8.685v4.073c0 4.341.536 8.686.536 8.686s.529 3.695 2.147 5.321c2.057 2.139 4.753 2.072 5.952 2.295 4.324.413 18.365.538 18.365.538s11.347-.016 18.903-.562c1.057-.121 3.359-.133 5.414-2.271 1.619-1.626 2.147-5.321 2.147-5.321s.536-4.345.536-8.686v-4.073c0-4.342-.536-8.685-.536-8.685s-.529-3.695-2.148-5.327zM16.979 56.755h-3.642V35.953H9.486v-3.406H20.9v3.406h-3.92v20.802zm12.912 0h-3.278v-1.969c-1.299 1.489-2.54 2.221-3.742 2.221-1.054 0-1.781-.432-2.112-1.346-.178-.546-.286-1.409-.286-2.683V38.717h3.275v13.28c0 .765 0 1.164.024 1.27.083.507.336.769.771.769.658 0 1.341-.507 2.069-1.533V38.717h3.278v18.038zm12.44-5.409c0 1.663-.11 2.866-.331 3.631-.438 1.344-1.313 2.03-2.613 2.03-1.168 0-2.294-.647-3.387-1.999v1.747h-3.277V32.547H36v7.905c1.056-1.299 2.179-1.956 3.387-1.956 1.299 0 2.174.688 2.613 2.036.221.729.331 1.918.331 3.628v7.186zM54.51 48.33h-6.55v3.199c0 1.671.549 2.506 1.673 2.506.806 0 1.275-.44 1.463-1.311.029-.178.073-.908.073-2.219h3.341v.479c0 1.051-.043 1.776-.071 2.106a4.606 4.606 0 0 1-.766 1.955c-.906 1.312-2.25 1.96-3.963 1.96-1.711 0-3.014-.618-3.96-1.853-.696-.902-1.051-2.326-1.051-4.241v-6.319c0-1.927.318-3.333 1.012-4.249.946-1.234 2.249-1.849 3.922-1.849 1.643 0 2.947.614 3.863 1.849.685.916 1.015 2.322 1.015 4.249v3.738zM23.436 24.434v-9.908L27.848-.026h-3.71l-2.503 9.605L19.03-.026h-3.863c.777 2.268 1.581 4.544 2.356 6.816 1.174 3.411 1.91 5.982 2.244 7.735v9.908h3.669zm8.611.251c1.656 0 2.942-.624 3.858-1.864.692-.91 1.029-2.346 1.029-4.287v-6.387c0-1.945-.337-3.367-1.029-4.289-.917-1.25-2.202-1.87-3.858-1.87-1.654 0-2.943.62-3.854 1.87-.707.922-1.034 2.344-1.034 4.289v6.387c0 1.941.327 3.377 1.034 4.287.911 1.24 2.2 1.864 3.854 1.864zm-1.581-13.199c0-1.686.514-2.529 1.581-2.529 1.062 0 1.573.844 1.573 2.529v7.669c0 1.687-.511 2.53-1.573 2.53-1.067 0-1.581-.844-1.581-2.53v-7.669zm18.522 12.948V6.203H45.68v13.935c-.733 1.034-1.427 1.548-2.088 1.548-.445 0-.708-.265-.777-.773-.042-.109-.042-.51-.042-1.285V6.203h-3.299v14.418c0 1.289.108 2.161.293 2.711.332.92 1.068 1.353 2.133 1.353 1.204 0 2.46-.732 3.781-2.24v1.989h3.307z" />
    </symbol>
    <symbol id="icon_lock" viewBox="0 0 2 2">
        <path
            d="M1.852 2.328H.026C0 2.328 0 2.302 0 2.302V.74C0 .714.026.714.026.714h1.826c.027 0 .053.027.053.027v.423c0 .027-.026.027-.053.027-.026 0-.053-.027-.053-.027v-.37H.053v1.481h1.746v-.82c0-.026.027-.026.053-.026.027 0 .053.026.053.026v.847c0 .026-.026.026-.053.026z"
            class="st6" />
        <path
            d="M1.614.767c-.027 0-.053-.026-.053-.026 0-.37-.291-.662-.609-.662C.61.08.344.37.344.741c0 .026-.027.026-.027.026C.291.767.291.741.291.741.291.344.609 0 .979 0c.37 0 .688.344.688.74 0 0-.027.027-.053.027zm-.609 1.27H.873c-.026 0-.026-.026-.026-.026v-.476c-.106-.027-.16-.133-.16-.239 0-.132.107-.264.266-.264.158 0 .264.106.264.264 0 .106-.053.186-.159.239v.476c0 .026-.026.026-.053.026zm-.079-.08h.053v-.475c0-.027 0-.027.026-.027.08-.026.133-.08.133-.159a.18.18 0 0 0-.185-.185.18.18 0 0 0-.186.185c0 .08.053.133.133.16.026 0 .026.026.026.026zm.926-.687c-.08 0-.132-.053-.132-.132 0-.08.053-.133.132-.133.08 0 .132.053.132.133.027.08-.053.132-.132.132z"
            class="st6" />
    </symbol>
    <symbol id="icon_compare" viewBox="0 2 16 14">
        <defs>
            <path id="a" d="M0 0h288v42H0z" />
            <mask id="b" width="288" height="42" x="0" y="0" fill="#fff">
                <use />
            </mask>
        </defs>
        <g fill="none" fill-rule="evenodd" transform="translate(-111 -13)">
            <use stroke="#404040" stroke-width="4" mask="url(#b)" />
            <path d="M111 13h16v16h-16z" />
            <path fill="#1A1A1A"
                d="M113.17 23a3.001 3.001 0 0 1 5.66 0H127v2h-8.17a3.001 3.001 0 0 1-5.66 0H111v-2h2.17zm6-6a3.001 3.001 0 0 1 5.66 0H127v2h-2.17a3.001 3.001 0 0 1-5.66 0H111v-2h8.17zm2.83 2a1 1 0 1 0 0-2 1 1 0 0 0 0 2zm-6 6a1 1 0 1 0 0-2 1 1 0 0 0 0 2z"
                class="filter-icon-fill" />
        </g>
    </symbol>
    <symbol id="brand_ico_1" viewBox="0 0 186 184">
        <g fill="none" stroke-width="2">
            <path stroke="#818181"
                d="M132.546 150.436c14.023-9.193 22.103-14.502 33.078-29.022 10.257-17.413 12.711-26.363 3.827-41.337" />
            <path stroke="#818181" stroke-linecap="round" stroke-linejoin="round"
                d="M165.674 121.36c18.292 24.868 18.045 31.998 19.056 38.788-31.41 23.922-110.94 26.913-142.77 17.336-27.164 6.047-34.2 3.653-40.96 1.143.34-5.171 11.098-11.072 11.914-20.703.743-8.767-9.015-17.428-7.395-29.671 3.35-25.308 2.445-21.397 10.309-39.226 4.857 8.796 6.738 11.704 8.913 14.249m6.973-13.042c4.781-3.102 19.6-2.82 23.852-1.264 42.028 15.373 76.694 16.908 113.945-8.904 12.155-8.422 24.248-39.17 6.92-58.925m-159.36 2.486c-2.444 5.027-4.426 10.114-5.962 15.47m4.719 49.93c-8.34-17.546-9.08-33.838-4.712-49.9 21.33 81.88 195.888 45.398 165.182-18.141-4.792-4.021-9.546-8.311-14.663-10.06 19.314 25.889 6.342 44.314-18.3 53.916a93.552 93.552 0 0 1-7.635 2.59c-6.695 1.963-13.993 3.365-21.57 4.185m0 0c-3.523.381-7.105.636-10.716.764m0 0c-3.644.128-7.317.126-10.985-.008m0 0c-3.12-.115-6.236-.325-9.329-.632m-35.748-8.926c-17.705-7.918-30.113-20.828-30.28-39.188M30.643 156.484c11.896 10.88 28.198 17.845 57.143 13.572" />
            <path stroke="#818181" stroke-linecap="round" stroke-linejoin="round"
                d="M53.52 69.102c10.452.966 17.242-16.978 26.166-15.533 3.641 5.54.413 13.526-6.81 17.836-7.222 4.31-15.871 3.324-19.319-2.203-3.447-5.527-.386-13.501 6.837-17.811 7.222-4.31 15.327-3.573 19.319 2.203M45.094 58.632c3.467-7.036-7.243-16.568-3.851-22.41 4.84-1.062 9.55 3.324 10.63 9.516 1.078 6.192-1.92 11.966-6.699 12.895-4.778.93-9.526-3.337-10.605-9.529-1.079-6.192 1.601-11.652 6.698-12.895M19.35 31.725c7.272-1.425 8.3-14.93 14.633-15.728 3.57 3.029 2.972 9.08-1.063 13.437-4.035 4.357-10.09 5.41-13.524 2.352-3.435-3.058-2.949-9.068 1.086-13.425 4.035-4.357 9.671-5.47 13.524-2.352M54.346 39.858c5.993 1.19 11.005-8.79 16.084-7.415 1.774 3.427-.576 7.856-5.017 9.915-4.441 2.06-9.389.968-11.051-2.44-1.663-3.407.59-7.839 5.03-9.899 4.442-2.06 9.09-1.144 11.052 2.44M41.381 18.628c8.495 3.244 18.345-10.145 25.455-6.859 1.746 5.473-2.81 11.383-9.842 13.295-7.031 1.912-14.018-.928-15.606-6.343-1.587-5.416 2.826-11.356 9.858-13.268 7.032-1.912 13.623.594 15.606 6.344M77.397 24.77c8.323-3.662 5.922-20.11 13.29-22.767 5.088 2.666 6 10.073 2.34 16.374-3.658 6.302-10.625 9.191-15.56 6.454-4.935-2.737-5.97-10.065-2.31-16.367 3.659-6.301 10.109-9.15 15.56-6.453" />
            <path stroke="#818181"
                d="M100.132 44.347c-3.342-7.096-17.471-4.662-19.926-10.956 2.187-4.447 8.553-5.397 14.068-2.38 5.514 3.015 8.16 8.959 5.908 13.275-2.251 4.315-8.547 5.37-14.061 2.353-5.515-3.016-8.114-8.514-5.909-13.275" />
            <path stroke="#818181" stroke-linecap="round" stroke-linejoin="round"
                d="M105.083 40.584c4.688 3.918 13.872-2.433 17.67 1.21-.087 3.858-4.274 6.616-9.159 6.293-4.885-.323-8.702-3.656-8.526-7.443.176-3.787 4.278-6.595 9.163-6.272 4.885.323 8.524 3.356 8.527 7.442M122.407 30.37c-.207-9.808-18.052-14.227-17.638-22.668 4.89-3.964 12.855-1.806 17.745 4.449 4.89 6.255 4.883 14.392-.015 18.175-4.898 3.782-12.834 1.778-17.724-4.476-4.89-6.255-5.062-13.86.015-18.175M142.75 11.031c-4.222-3.236-13.324 2.602-16.717-.426.311-3.353 4.452-5.895 9.074-5.787 4.622.108 8.052 2.866 7.662 6.16-.391 3.295-4.455 5.878-9.077 5.77-4.622-.108-7.9-2.613-7.662-6.161M147.845 9.938c2.177 5.808 13.47 4.8 14.999 9.918-2.01 3.363-7.088 3.703-11.24.97-4.153-2.731-5.855-7.586-3.803-10.842 2.052-3.257 7.082-3.682 11.234-.95 4.152 2.731 5.847 7.232 3.802 10.842M153.83 38.897c-4.871-6.185-19.008-.819-22.803-6.413 1.377-4.785 7.776-7.06 14.084-5.302 6.308 1.76 10.23 6.972 8.76 11.644-1.47 4.672-7.775 7.033-14.083 5.274-6.308-1.759-10.093-6.55-8.76-11.644M103.679 72.043c1.35-7.755-.595-17.68 4.755-21.166 6.422 1.65 9.405 9.73 6.96 17.778-.33 1.087-.744 1.74-1.229 2.71m-21.676.962c-1.325-2.884-.897-6.454.206-10.083 2.444-8.048 8.937-12.955 15.776-11.367M144.207 63.28c-3.341-7.096-17.605-4.907-20.06-11.202 2.187-4.446 8.554-5.396 14.068-2.38 5.515 3.016 8.607 9.094 6.355 13.41-.195.373-1.268 1.37-1.52 1.694m-7.365 2.576c-1.637-.203-3.998-1.163-5.623-2.051-5.514-3.016-8.113-8.515-5.908-13.275M166.465 48.55c-.18-6.226-7.311-13.452-4.613-18.253 3.583-.839 7.136 1.463 9.07 5.298m-7.18 16.184c-3.766-.467-7.165-4.098-8.102-9.065-1.116-5.91 1.375-11.17 6.235-12.429M103.569 113.165c-28.042-8.651-39.708 25.491-27.716 36.492 6.278-27.735 26.878-11.908 27.716-36.492z" />
            <path stroke="#00c250" stroke-linecap="round" stroke-linejoin="round"
                d="M80.876 152.317c26.021 7.263 36.93-25.238 26.2-36.997-1.278 27.155-22.452 9.503-26.2 36.997z" />
        </g>
    </symbol>
    <symbol id="brand_ico_3" viewBox="0 0 164 175">
        <g fill="none" stroke-width="2">
            <path stroke="#818181" d="M127.98 174.15h-17.478V77.067H52.951v97.081H35.473" />
            <path stroke="#818181" stroke-linecap="round" stroke-linejoin="round"
                d="M110.501 77.068h8.369V64.29l-7.833-.008.01-10.933c0-11.29-9.352-27.543-22.927-27.543H75.333c-13.186 0-22.927 14.3-22.927 27.543l.01 10.933-7.833.008v12.778h8.369M90.01 9.214a8.219 8.214 0 0 1-8.218 8.214 8.219 8.214 0 0 1-8.219-8.214A8.219 8.214 0 0 1 81.792 1a8.219 8.214 0 0 1 8.218 8.214zM81.56 25.545v-7.424" />
            <path stroke="#818181" d="M52.95 174.15h57.552" />
            <path stroke="#00c250" stroke-linecap="round" stroke-linejoin="round"
                d="M90.01 45.848a8.219 8.214 0 0 1-8.218 8.214 8.219 8.214 0 0 1-8.219-8.214 8.219 8.214 0 0 1 8.219-8.214 8.219 8.214 0 0 1 8.218 8.214z" />
            <path stroke="#818181" d="M51.982 64.283c1.315-.164 59.667 0 59.667 0" />
            <path stroke="#818181" stroke-linecap="round" stroke-linejoin="round"
                d="M81.56 97.414V78.86M62.891 98.487h36.434M53.664 138.97l55.875-33.032M53.664 165.912l55.875-33.032M111.214 154.105h13.479c4.252 0 9.451-5.114 9.451-9.446v-39.424c0-5.097-4.355-9.446-9.451-9.446h-13.479M1.014 45.937h38.82M18.681 34.32l20.697 5.543M18.681 57.984l20.697-5.542M163.27 45.937h-38.821M145.602 34.32l-20.697 5.543M145.602 57.984l-20.697-5.542" />
        </g>
    </symbol>
    <symbol id="brand_ico_4" viewBox="0 0 142 145">
        <g fill="none" stroke-linecap="round" stroke-linejoin="round" stroke-width="2">
            <path stroke="#818181"
                d="M66.402 19.346h17.536l19.784 63.812v20.74m-4.987 40.48H5.987c-3.025 0-4.913-1.1-4.987-4.985V83.158l19.784-63.812h24.458" />
            <path stroke="#00c250" d="M105.934 144.18h34.711V116.26L123.29 98.912l-17.056 17.05z" />
            <path stroke="#818181"
                d="M42.295 42.478h21.146M52.07 49.856c0-11.768-.047-12.883-.047-19.5C58.806 3.365 78.925 1 86.583 1c56.355 0 51.696 71.711 36.706 90.16v6.556M71.059 62.757l-27.45 27.45M50.353 67.035L39.637 85.59M67.086 83.768L48.53 94.484M35.711 127.338l27.45-27.45M56.417 123.06l10.716-18.555M39.684 106.327L58.24 95.61" />
        </g>
    </symbol>
    <symbol id="brand_ico_5" viewBox="0 0 160 154">
        <g fill="none" stroke-width="2" transform="translate(-230 -171)">
            <path stroke="gray" stroke-linecap="round" stroke-linejoin="round"
                d="M376.871 322.073V307.94c0-5.29-2.835-9.544-9.555-9.556H252.249c-6.72.011-9.556 4.265-9.556 9.556v14.134M361.543 297.687l4.631-72.766 6.318-.097c5.177 0 9.157-3.848 9.157-9.157v-21.102c0-9.894-9.482-22.894-22.894-22.894H260.81c-13.411 0-22.894 13-22.894 22.894v21.102c0 5.309 3.98 9.157 9.158 9.157l6.318.097 4.631 72.766M366.17 225.318h-37.998" />
            <path stroke="gray" d="M229.952 323.566h159.66" />
            <circle cx="267" cy="199" r="6" stroke="gray" stroke-linecap="round"
                stroke-linejoin="round" />
            <circle cx="288" cy="199" r="6" stroke="gray" stroke-linecap="round"
                stroke-linejoin="round" />
            <circle cx="354" cy="199" r="14" stroke="gray" stroke-linecap="round"
                stroke-linejoin="round" />
            <circle cx="354" cy="199" r="1" stroke="gray" stroke-linecap="round"
                stroke-linejoin="round" />
            <path stroke="#00c250" stroke-linecap="round" stroke-linejoin="round"
                d="M329.861 243.798h24.212v8.587h-24.212v-4.083zM321.697 248.162h7.883" />
            <path stroke="gray" stroke-linecap="round" stroke-linejoin="round"
                d="M344.82 298.259v-7.297c0-2.732-1.561-4.928-5.262-4.934H276.191c-3.7.004-5.262 2.202-5.262 4.934v7.297M298.08 240.255h23.36M253.395 225.318h37.998m-.07 0l.07 13.452c-.07 1.933 3.38 1.482 6.848 1.482l-.086 14.707H321.41l-.039-6.586-.048-8.12c3.47 0 6.92.45 6.849-1.483l.07-13.452h-18.46z" />
        </g>
    </symbol>
    <symbol id="brand_ico_6" viewBox="0 0 107 147">
        <g fill="none" stroke-width="2">
            <path stroke="gray" stroke-linecap="round" stroke-linejoin="round"
                d="M65.576 28.864H39.173v7.213c.096 9.84 6.354 16.487 12.84 22.01m0 0h13.925m.09 6.41H52.013m0 0H36.28l6.333 10.94" />
            <path stroke="gray" stroke-linejoin="round" d="M52.24 58.124V64.3" />
            <path stroke="gray" stroke-linecap="round" stroke-linejoin="round"
                d="M66.788 28.864h26.404v7.213c-.097 9.84-6.354 16.487-12.84 22.01m0 0H66.427m-.09 6.41h14.015m0 0h15.733l-6.334 10.94" />
            <path stroke="gray" stroke-linejoin="round" d="M80.126 58.124V64.3" />
            <path stroke="gray"
                d="M94.286 75.66c9.687 21.471 10.346 31.995 10.346 38.678v7.22c0 11.814-12.988 22.958-23.027 22.958H51.2c-10.039 0-23.027-11.144-23.027-22.957v-7.22c0-6.684.659-17.208 10.346-38.679l27.883.026z" />
            <path stroke="gray" stroke-linecap="round" stroke-linejoin="round"
                d="M65.695 28.723V14.837c6.883 0 11.755-6.138 11.755-11.722H55.025c0 6.053 4.697 11.686 10.505 11.686" />
            <path stroke="gray" stroke-linecap="round" stroke-linejoin="round"
                d="M65.7 21.27H41.276l-6.788-3.909H7.517L2.786 7.498H20.88l-5.179 9.819M39.427 113.68c0 8.33 3.606 20.531 15.601 20.531" />
            <path stroke="#818181" stroke-linecap="round" stroke-linejoin="round"
                d="M75.654 94.079c-21.505-6.64-30.452 19.562-21.255 28.004 4.814-21.284 20.612-9.139 21.255-28.004z" />
            <path stroke="#00c250" stroke-linecap="round" stroke-linejoin="round"
                d="M58.25 124.124c19.956 5.573 28.322-19.368 20.094-28.391-.98 20.838-17.219 7.292-20.093 28.39z" />
        </g>
    </symbol>
    <symbol id="brand_ico_7" viewBox="0 0 129 144">
        <g fill="none" stroke-linecap="round" stroke-linejoin="round" stroke-width="2">
            <path stroke="gray"
                d="M28.176 142.958h62.845l7.077-49.77 28.592-21.492.849-50.901c0-3.902-4.403-6.504-8.576-6.504H1L18.55 36.63v31.672z" />
            <path stroke="gray"
                d="M98.098 93.754l2.548-26.017V13.725L81.962 1 19.083 14.311l-.466 22.668c24.672 34.854 57.844 32.639 81.675.217" />
            <path stroke="gray"
                d="M101.119 29.493h9.008s3.553 1.36 3.553 3.55v30.643l-13.262 8.798M47.567 61.085v25.592c0 14.377 24.063 10.939 24.063 0V60.519" />
            <path stroke="#00c250"
                d="M59.473 121.608c3.335 0 5.803-2.721 5.803-5.797-1.189-4.82-3.356-8.5-5.953-12.018-2.597 3.518-4.764 7.198-5.952 12.018 0 3.076 2.468 5.797 5.803 5.797" />
        </g>
    </symbol>
    <symbol id="brand_ico_8" viewBox="0 0 98 144">
        <g fill="none" stroke-linecap="round" stroke-linejoin="round" stroke-width="2">
            <path stroke="gray"
                d="M10.278 142.944c-7.175 0-9.446-3.887-9.264-9.02V61.226C9.14 47.524 8.916 38.764 8.916 25.144V3.918C8.916 2.443 9.632 1 11.64 1h14.866c2.01 0 2.725 1.443 2.725 2.918v21.226c0 13.62-.223 22.38 7.902 36.083v72.696c.181 5.134-2.089 9.021-9.264 9.021h-8.796zM1.24 120.658h35.668M1.014 73.9h36.12M9.04 3.996c0 2.18 2.657 4.698 10.033 4.698 7.376 0 10.033-2.518 10.033-4.698" />
            <path stroke="gray" d="M54.415 125.127v16.387l-17.233-9.971v-15.092z" />
            <path stroke="gray"
                d="M37.386 116.305l15.683-9.25 15.737 8.372-14.063 9.383-.34 16.681 13.498-11.092.739-14.968m1.747-2.128l12.654 8.876-3.235 17.215-11.35-8.676" />
            <path stroke="gray"
                d="M80.383 139.78l13.465-10.7 3.367-14.653-13.37-11.182-13.176 9.158-3.943-8.869-16.928-1.06 11.253-10.99 16.735-.77 6.252 12.82M77.883 91.1l-10.965 12.434M83.461 122.428l13.273-7.905M50.117 103.205l2.514 4.037M70.188 113.077l-1.635 7.809" />
            <path stroke="#00c250"
                d="M8.916 10.524V3.918C8.916 2.443 9.632 1 11.64 1h14.866c2.01 0 2.725 1.443 2.725 2.918v6.874M9.041 3.996c0 2.18 2.657 4.698 10.033 4.698 7.376 0 10.033-2.518 10.033-4.698" />
        </g>
    </symbol>
    <symbol id="brand_ico_10" viewBox="0 0 134 138">
        <g fill="none" stroke-linecap="round" stroke-linejoin="round" stroke-width="2"
            transform="translate(-1144 -185)">
            <rect width="115" height="53" x="619" y="1009" stroke="gray" ry="10"
                transform="rotate(-45)" />
            <path stroke="gray"
                d="M1250.584 212.121l-.065-25.964c2.073 3.136 3.708 6.708 7.812 7.812 6.049 1.265 10.339 7.134 11.526 11.526 1.397 4.171 6.687 4.15 7.324 7.324zM1170.784 295.962l-25.964-.066c3.135 2.073 6.708 3.709 7.812 7.812 1.265 6.05 7.134 10.34 11.526 11.526 4.171 1.397 4.15 6.688 7.324 7.324zM1172.309 295.957l-8.695-31.99M1198.968 300.791l-15.534-57.147M1239.11 260.676l-15.085-55.632M1259.604 239.93l-6.99-25.166M1218.14 244.935c-17.248-5.34-24.423 15.737-17.047 22.528 3.862-17.122 16.532-7.352 17.047-22.528z" />
            <path stroke="#00c250"
                d="M1204.182 269.105c16.006 4.484 22.715-15.58 16.116-22.84-.786 16.764-13.81 5.867-16.116 22.84z" />
        </g>
    </symbol>
    <symbol id="brand_ico_11" viewBox="0 0 158 149">
        <g fill="none" stroke="gray" stroke-width="3">
            <path stroke-linecap="round" stroke-linejoin="round"
                d="M97.953 167.667v158.842h49.32m34.513-145.423v-13.42m-28.238-20.296v-34.857H125.75l-.308 34.857-27.434 20.131h83.58l-27.654-20.13H125.75M156.277 190.66h69.263v144.766h-69.263z"
                transform="matrix(.63874 0 0 .63856 -60 -68)" />
            <path stroke-linecap="round" stroke-linejoin="round"
                d="M97.985 206.554h36.622v69.714H97.985zM171.197 256.795h37.945v41.034h-37.945z"
                transform="matrix(.63874 0 0 .63856 -60 -68)" />
            <path
                d="M156.526 219.511h68.611M171.197 190.721v28.57M190.5 190.721v28.57M210.907 190.721v28.57"
                transform="matrix(.63874 0 0 .63856 -60 -68)" />
            <path stroke-linecap="round" stroke-linejoin="round"
                d="M248.412 203.404v21.986m24.579-31.12v-15.685H260.7l-.136 15.686-12.129 9.059h36.952l-12.227-9.06h-12.46M233.393 237.85c30.63-7.343 67.013-4.27 100.098 12.231l-31.677 75.833-27.113.123-38.18.174-2.623-6.554"
                transform="matrix(.63874 0 0 .63856 -60 -68)" />
            <path stroke-linecap="round" stroke-linejoin="round"
                d="M295.656 282.577l-10.285 24.507H255.2l-10.286-23.46c20.062 5.727 32.85-9.851 50.74-1.047zM321.916 250.89l-4.025 9.636m-3.96 9.48l-3.778 9.044m-3.49 8.357l-3.476 8.32m-3.618 8.66l-3.347 8.015m-7.336 5.785l-10.504.047m-7.924.036l-10.503.048m-6.141.028l-12.554.056M285.332 203.745v22.776M97.953 167.667v158.842h49.32m34.513-145.423v-13.42m-28.238-20.296v-34.857H125.75l-.308 34.857-27.434 20.131h83.58l-27.654-20.13H125.75M156.277 190.66h69.263v144.766h-69.263z"
                transform="matrix(.63874 0 0 .63856 -60 -68)" />
            <path stroke-linecap="round" stroke-linejoin="round"
                d="M97.985 206.554h36.622v69.714H97.985zM171.197 256.795h37.945v41.034h-37.945z"
                transform="matrix(.63874 0 0 .63856 -60 -68)" />
            <path
                d="M156.526 219.511h68.611M171.197 190.721v28.57M190.5 190.721v28.57M210.907 190.721v28.57"
                transform="matrix(.63874 0 0 .63856 -60 -68)" />
            <path stroke-linecap="round" stroke-linejoin="round"
                d="M248.412 203.404v21.986m24.579-31.12v-15.685H260.7l-.136 15.686-12.129 9.059h36.952l-12.227-9.06h-12.46M233.393 237.85c30.63-7.343 67.013-4.27 100.098 12.231l-31.677 75.833-27.113.123-38.18.174-2.623-6.554"
                transform="matrix(.63874 0 0 .63856 -60 -68)" />
            <path stroke="#00c250" stroke-linecap="round" stroke-linejoin="round"
                d="M295.656 282.577l-10.285 24.507H255.2l-10.286-23.46c20.062 5.727 32.85-9.851 50.74-1.047z"
                transform="matrix(.63874 0 0 .63856 -60 -68)" />
            <path stroke-linecap="round" stroke-linejoin="round"
                d="M321.916 250.89l-4.025 9.636m-3.96 9.48l-3.778 9.044m-3.49 8.357l-3.476 8.32m-3.618 8.66l-3.347 8.015m-7.336 5.785l-10.504.047m-7.924.036l-10.503.048m-6.141.028l-12.554.056M285.332 203.745v22.776"
                transform="matrix(.63874 0 0 .63856 -60 -68)" />
        </g>
    </symbol>
    <symbol id="brand_ico_12" viewBox="0 0 156 147">
        <g fill="none" stroke-linecap="round" stroke-linejoin="round" stroke-width="2"
            transform="translate(-1399 -396)">
            <path stroke="gray"
                d="M1432.956 525.936H1404.7a1.132 1.132 0 0 1-1.134-1.134V435.92c9.242 2.186 14.368-1.484 15.567-10.74 9.528.146 18.984.174 19.855-13.7 8.116 1.186 15.443.987 16.033-11.063h33.59c.628 0 1.134.506 1.134 1.134v93.428" />
            <path stroke="gray"
                d="M1429.008 428.017v9.288c0 .628-.506 1.134-1.135 1.134h-8.262M1449.521 416.908h2.648c.628 0 1.134.506 1.134 1.134v19.263c0 .628-.506 1.134-1.134 1.134h-10.108a1.132 1.132 0 0 1-1.135-1.134v-13.296" />
            <rect width="12" height="22" x="1465" y="417" stroke="gray" ry="1" />
            <rect width="12" height="22" x="1417" y="452" stroke="gray" ry="1" />
            <rect width="12" height="22" x="1441" y="452" stroke="gray" ry="1" />
            <rect width="12" height="22" x="1465" y="452" stroke="gray" ry="1" />
            <rect width="12" height="22" x="1417" y="487" stroke="gray" ry="1" />
            <path stroke="gray"
                d="M1445.759 508.986h-3.698a1.132 1.132 0 0 1-1.135-1.134V488.59c0-.628.506-1.134 1.135-1.134h10.108c.628 0 1.134.506 1.134 1.134v9.466M1464.763 497.893v-9.304c0-.628.506-1.134 1.135-1.134h10.108c.628 0 1.134.506 1.134 1.134v9.466" />
            <ellipse cx="1507" cy="457" stroke="gray" rx="2" ry="2" />
            <ellipse cx="1507" cy="469" stroke="gray" rx="2" ry="2" />
            <ellipse cx="1522" cy="469" stroke="gray" rx="2" ry="2" />
            <ellipse cx="1537" cy="469" stroke="gray" rx="2" ry="2" />
            <ellipse cx="1507" cy="484" stroke="gray" rx="2" ry="2" />
            <ellipse cx="1522" cy="484" stroke="gray" rx="2" ry="2" />
            <ellipse cx="1537" cy="484" stroke="gray" rx="2" ry="2" />
            <ellipse cx="1522" cy="498" stroke="gray" rx="2" ry="2" />
            <path stroke="gray"
                d="M1496.499 442.69a38.726 38.726 0 0 1 16.282-3.564c21.456 0 38.85 17.382 38.85 38.824 0 11.866-5.328 22.489-13.722 29.61" />
            <rect width="73" height="34" x="1458" y="506" stroke="gray" ry="6" />
            <path stroke="gray"
                d="M1530.731 522.096l11.61-11.755c-.477 2.352-1.345 4.704 0 7.056 2.144 3.303 1.436 7.89 0 10.41-1.244 2.514 1.136 4.894 0 6.614zM1457.38 523.92l-11.609-11.755c.477 2.352 1.345 4.704 0 7.056-2.144 3.303-1.436 7.89 0 10.41 1.244 2.514-1.137 4.894 0 6.615zM1458.066 524.607l10.442-18.373M1467.849 538.83l18.652-32.823M1503.823 538.84l18.175-31.934M1522.309 538.728l8.147-14.523M1501.48 522.263c-5.337-10.201-18.002-3.923-17.74 2.475 9.406-5.989 10.706 4.145 17.74-2.475z" />
            <path stroke="#00c250"
                d="M1484.39 526.874c5.164 9.253 17.165 3.222 17.46-3.036-7.866 7.215-8.82-3.587-17.46 3.036z" />
            <ellipse cx="1522" cy="457" stroke="gray" rx="2" ry="2" />
        </g>
    </symbol>
</svg>