<svg width="26" height="27" viewBox="0 0 26 27" fill="none" xmlns="http://www.w3.org/2000/svg">
<path fill-rule="evenodd" clip-rule="evenodd" d="M6.625 7.25C6.625 3.72918 9.47919 0.875 13 0.875C16.5208 0.875 19.375 3.72918 19.375 7.25C19.375 10.7708 16.5208 13.625 13 13.625C9.47919 13.625 6.625 10.7708 6.625 7.25ZM13 3.125C10.7218 3.125 8.875 4.97183 8.875 7.25C8.875 9.52817 10.7218 11.375 13 11.375C15.2782 11.375 17.125 9.52817 17.125 7.25C17.125 4.97183 15.2782 3.125 13 3.125Z" fill="black"/>
<path fill-rule="evenodd" clip-rule="evenodd" d="M7 18.125C5.13604 18.125 3.625 19.636 3.625 21.5V23.2824C3.625 23.3096 3.64467 23.3327 3.67145 23.3371C9.84959 24.3458 16.1504 24.3458 22.3285 23.3371C22.3553 23.3327 22.375 23.3096 22.375 23.2824V21.5C22.375 19.636 20.864 18.125 19 18.125H18.4887C18.4492 18.125 18.4099 18.1313 18.3723 18.1435L17.074 18.5674C14.4268 19.4319 11.5732 19.4319 8.92598 18.5674L7.6277 18.1435C7.59012 18.1313 7.55084 18.125 7.5113 18.125H7ZM1.375 21.5C1.375 18.3934 3.8934 15.875 7 15.875H7.5113C7.78804 15.875 8.06304 15.9188 8.32611 16.0047L9.62438 16.4286C11.8178 17.1448 14.1822 17.1448 16.3756 16.4286L17.6739 16.0047C17.937 15.9188 18.212 15.875 18.4887 15.875H19C22.1066 15.875 24.625 18.3934 24.625 21.5V23.2824C24.625 24.4123 23.8062 25.3756 22.6911 25.5577C16.2729 26.6056 9.72715 26.6056 3.30891 25.5577C2.19383 25.3756 1.375 24.4123 1.375 23.2824V21.5Z" fill="black"/>
<path fill-rule="evenodd" clip-rule="evenodd" d="M6.625 7.25C6.625 3.72918 9.47919 0.875 13 0.875C16.5208 0.875 19.375 3.72918 19.375 7.25C19.375 10.7708 16.5208 13.625 13 13.625C9.47919 13.625 6.625 10.7708 6.625 7.25ZM13 3.125C10.7218 3.125 8.875 4.97183 8.875 7.25C8.875 9.52817 10.7218 11.375 13 11.375C15.2782 11.375 17.125 9.52817 17.125 7.25C17.125 4.97183 15.2782 3.125 13 3.125Z" stroke="white" stroke-linecap="round" stroke-linejoin="round"/>
<path fill-rule="evenodd" clip-rule="evenodd" d="M7 18.125C5.13604 18.125 3.625 19.636 3.625 21.5V23.2824C3.625 23.3096 3.64467 23.3327 3.67145 23.3371C9.84959 24.3458 16.1504 24.3458 22.3285 23.3371C22.3553 23.3327 22.375 23.3096 22.375 23.2824V21.5C22.375 19.636 20.864 18.125 19 18.125H18.4887C18.4492 18.125 18.4099 18.1313 18.3723 18.1435L17.074 18.5674C14.4268 19.4319 11.5732 19.4319 8.92598 18.5674L7.6277 18.1435C7.59012 18.1313 7.55084 18.125 7.5113 18.125H7ZM1.375 21.5C1.375 18.3934 3.8934 15.875 7 15.875H7.5113C7.78804 15.875 8.06304 15.9188 8.32611 16.0047L9.62438 16.4286C11.8178 17.1448 14.1822 17.1448 16.3756 16.4286L17.6739 16.0047C17.937 15.9188 18.212 15.875 18.4887 15.875H19C22.1066 15.875 24.625 18.3934 24.625 21.5V23.2824C24.625 24.4123 23.8062 25.3756 22.6911 25.5577C16.2729 26.6056 9.72715 26.6056 3.30891 25.5577C2.19383 25.3756 1.375 24.4123 1.375 23.2824V21.5Z" stroke="white" stroke-linecap="round" stroke-linejoin="round"/>
</svg>
